<mxfile host="app.diagrams.net" agent="Mozilla/5.0 (Windows NT 10.0; Win64; x64) AppleWebKit/537.36 (KHTML, like Gecko) Chrome/134.0.0.0 Safari/537.36" version="26.1.0">
  <diagram name="PÃ¡gina-1" id="TntWKMabvDAGFMS9qycw">
    <mxGraphModel grid="0" page="1" gridSize="10" guides="1" tooltips="1" connect="1" arrows="1" fold="1" pageScale="1" pageWidth="827" pageHeight="1169" math="0" shadow="0">
      <root>
        <mxCell id="0" />
        <mxCell id="1" parent="0" />
        <mxCell id="Dfj8NLsdCSNwz5OeEImE-207" value="USUARIOS" style="shape=table;startSize=30;container=1;collapsible=1;childLayout=tableLayout;fixedRows=1;rowLines=0;fontStyle=1;align=center;resizeLast=1;html=1;" vertex="1" parent="1">
          <mxGeometry x="-83.91" y="-94" width="180" height="240" as="geometry" />
        </mxCell>
        <mxCell id="Dfj8NLsdCSNwz5OeEImE-208" value="" style="shape=tableRow;horizontal=0;startSize=0;swimlaneHead=0;swimlaneBody=0;fillColor=none;collapsible=0;dropTarget=0;points=[[0,0.5],[1,0.5]];portConstraint=eastwest;top=0;left=0;right=0;bottom=1;" vertex="1" parent="Dfj8NLsdCSNwz5OeEImE-207">
          <mxGeometry y="30" width="180" height="30" as="geometry" />
        </mxCell>
        <mxCell id="Dfj8NLsdCSNwz5OeEImE-209" value="PK" style="shape=partialRectangle;connectable=0;fillColor=none;top=0;left=0;bottom=0;right=0;fontStyle=1;overflow=hidden;whiteSpace=wrap;html=1;" vertex="1" parent="Dfj8NLsdCSNwz5OeEImE-208">
          <mxGeometry width="30" height="30" as="geometry">
            <mxRectangle width="30" height="30" as="alternateBounds" />
          </mxGeometry>
        </mxCell>
        <mxCell id="Dfj8NLsdCSNwz5OeEImE-210" value="usu_id" style="shape=partialRectangle;connectable=0;fillColor=none;top=0;left=0;bottom=0;right=0;align=left;spacingLeft=6;fontStyle=5;overflow=hidden;whiteSpace=wrap;html=1;" vertex="1" parent="Dfj8NLsdCSNwz5OeEImE-208">
          <mxGeometry x="30" width="150" height="30" as="geometry">
            <mxRectangle width="150" height="30" as="alternateBounds" />
          </mxGeometry>
        </mxCell>
        <mxCell id="Dfj8NLsdCSNwz5OeEImE-211" value="" style="shape=tableRow;horizontal=0;startSize=0;swimlaneHead=0;swimlaneBody=0;fillColor=none;collapsible=0;dropTarget=0;points=[[0,0.5],[1,0.5]];portConstraint=eastwest;top=0;left=0;right=0;bottom=0;" vertex="1" parent="Dfj8NLsdCSNwz5OeEImE-207">
          <mxGeometry y="60" width="180" height="30" as="geometry" />
        </mxCell>
        <mxCell id="Dfj8NLsdCSNwz5OeEImE-212" value="" style="shape=partialRectangle;connectable=0;fillColor=none;top=0;left=0;bottom=0;right=0;editable=1;overflow=hidden;whiteSpace=wrap;html=1;" vertex="1" parent="Dfj8NLsdCSNwz5OeEImE-211">
          <mxGeometry width="30" height="30" as="geometry">
            <mxRectangle width="30" height="30" as="alternateBounds" />
          </mxGeometry>
        </mxCell>
        <mxCell id="Dfj8NLsdCSNwz5OeEImE-213" value="usu_email" style="shape=partialRectangle;connectable=0;fillColor=none;top=0;left=0;bottom=0;right=0;align=left;spacingLeft=6;overflow=hidden;whiteSpace=wrap;html=1;" vertex="1" parent="Dfj8NLsdCSNwz5OeEImE-211">
          <mxGeometry x="30" width="150" height="30" as="geometry">
            <mxRectangle width="150" height="30" as="alternateBounds" />
          </mxGeometry>
        </mxCell>
        <mxCell id="Dfj8NLsdCSNwz5OeEImE-214" value="" style="shape=tableRow;horizontal=0;startSize=0;swimlaneHead=0;swimlaneBody=0;fillColor=none;collapsible=0;dropTarget=0;points=[[0,0.5],[1,0.5]];portConstraint=eastwest;top=0;left=0;right=0;bottom=0;" vertex="1" parent="Dfj8NLsdCSNwz5OeEImE-207">
          <mxGeometry y="90" width="180" height="30" as="geometry" />
        </mxCell>
        <mxCell id="Dfj8NLsdCSNwz5OeEImE-215" value="" style="shape=partialRectangle;connectable=0;fillColor=none;top=0;left=0;bottom=0;right=0;editable=1;overflow=hidden;" vertex="1" parent="Dfj8NLsdCSNwz5OeEImE-214">
          <mxGeometry width="30" height="30" as="geometry">
            <mxRectangle width="30" height="30" as="alternateBounds" />
          </mxGeometry>
        </mxCell>
        <mxCell id="Dfj8NLsdCSNwz5OeEImE-216" value="usu_nome" style="shape=partialRectangle;connectable=0;fillColor=none;top=0;left=0;bottom=0;right=0;align=left;spacingLeft=6;overflow=hidden;" vertex="1" parent="Dfj8NLsdCSNwz5OeEImE-214">
          <mxGeometry x="30" width="150" height="30" as="geometry">
            <mxRectangle width="150" height="30" as="alternateBounds" />
          </mxGeometry>
        </mxCell>
        <mxCell id="Dfj8NLsdCSNwz5OeEImE-217" value="" style="shape=tableRow;horizontal=0;startSize=0;swimlaneHead=0;swimlaneBody=0;fillColor=none;collapsible=0;dropTarget=0;points=[[0,0.5],[1,0.5]];portConstraint=eastwest;top=0;left=0;right=0;bottom=0;" vertex="1" parent="Dfj8NLsdCSNwz5OeEImE-207">
          <mxGeometry y="120" width="180" height="30" as="geometry" />
        </mxCell>
        <mxCell id="Dfj8NLsdCSNwz5OeEImE-218" value="" style="shape=partialRectangle;connectable=0;fillColor=none;top=0;left=0;bottom=0;right=0;editable=1;overflow=hidden;whiteSpace=wrap;html=1;" vertex="1" parent="Dfj8NLsdCSNwz5OeEImE-217">
          <mxGeometry width="30" height="30" as="geometry">
            <mxRectangle width="30" height="30" as="alternateBounds" />
          </mxGeometry>
        </mxCell>
        <mxCell id="Dfj8NLsdCSNwz5OeEImE-219" value="usu_senha" style="shape=partialRectangle;connectable=0;fillColor=none;top=0;left=0;bottom=0;right=0;align=left;spacingLeft=6;overflow=hidden;whiteSpace=wrap;html=1;" vertex="1" parent="Dfj8NLsdCSNwz5OeEImE-217">
          <mxGeometry x="30" width="150" height="30" as="geometry">
            <mxRectangle width="150" height="30" as="alternateBounds" />
          </mxGeometry>
        </mxCell>
        <mxCell id="Dfj8NLsdCSNwz5OeEImE-220" value="" style="shape=tableRow;horizontal=0;startSize=0;swimlaneHead=0;swimlaneBody=0;fillColor=none;collapsible=0;dropTarget=0;points=[[0,0.5],[1,0.5]];portConstraint=eastwest;top=0;left=0;right=0;bottom=0;" vertex="1" parent="Dfj8NLsdCSNwz5OeEImE-207">
          <mxGeometry y="150" width="180" height="30" as="geometry" />
        </mxCell>
        <mxCell id="Dfj8NLsdCSNwz5OeEImE-221" value="" style="shape=partialRectangle;connectable=0;fillColor=none;top=0;left=0;bottom=0;right=0;editable=1;overflow=hidden;" vertex="1" parent="Dfj8NLsdCSNwz5OeEImE-220">
          <mxGeometry width="30" height="30" as="geometry">
            <mxRectangle width="30" height="30" as="alternateBounds" />
          </mxGeometry>
        </mxCell>
        <mxCell id="Dfj8NLsdCSNwz5OeEImE-222" value="usu_tipo_usuario" style="shape=partialRectangle;connectable=0;fillColor=none;top=0;left=0;bottom=0;right=0;align=left;spacingLeft=6;overflow=hidden;" vertex="1" parent="Dfj8NLsdCSNwz5OeEImE-220">
          <mxGeometry x="30" width="150" height="30" as="geometry">
            <mxRectangle width="150" height="30" as="alternateBounds" />
          </mxGeometry>
        </mxCell>
        <mxCell id="Dfj8NLsdCSNwz5OeEImE-223" value="" style="shape=tableRow;horizontal=0;startSize=0;swimlaneHead=0;swimlaneBody=0;fillColor=none;collapsible=0;dropTarget=0;points=[[0,0.5],[1,0.5]];portConstraint=eastwest;top=0;left=0;right=0;bottom=0;" vertex="1" parent="Dfj8NLsdCSNwz5OeEImE-207">
          <mxGeometry y="180" width="180" height="30" as="geometry" />
        </mxCell>
        <mxCell id="Dfj8NLsdCSNwz5OeEImE-224" value="" style="shape=partialRectangle;connectable=0;fillColor=none;top=0;left=0;bottom=0;right=0;editable=1;overflow=hidden;" vertex="1" parent="Dfj8NLsdCSNwz5OeEImE-223">
          <mxGeometry width="30" height="30" as="geometry">
            <mxRectangle width="30" height="30" as="alternateBounds" />
          </mxGeometry>
        </mxCell>
        <mxCell id="Dfj8NLsdCSNwz5OeEImE-225" value="usu_data_criacao" style="shape=partialRectangle;connectable=0;fillColor=none;top=0;left=0;bottom=0;right=0;align=left;spacingLeft=6;overflow=hidden;" vertex="1" parent="Dfj8NLsdCSNwz5OeEImE-223">
          <mxGeometry x="30" width="150" height="30" as="geometry">
            <mxRectangle width="150" height="30" as="alternateBounds" />
          </mxGeometry>
        </mxCell>
        <mxCell id="Dfj8NLsdCSNwz5OeEImE-226" value="" style="shape=tableRow;horizontal=0;startSize=0;swimlaneHead=0;swimlaneBody=0;fillColor=none;collapsible=0;dropTarget=0;points=[[0,0.5],[1,0.5]];portConstraint=eastwest;top=0;left=0;right=0;bottom=0;" vertex="1" parent="Dfj8NLsdCSNwz5OeEImE-207">
          <mxGeometry y="210" width="180" height="30" as="geometry" />
        </mxCell>
        <mxCell id="Dfj8NLsdCSNwz5OeEImE-227" value="" style="shape=partialRectangle;connectable=0;fillColor=none;top=0;left=0;bottom=0;right=0;editable=1;overflow=hidden;" vertex="1" parent="Dfj8NLsdCSNwz5OeEImE-226">
          <mxGeometry width="30" height="30" as="geometry">
            <mxRectangle width="30" height="30" as="alternateBounds" />
          </mxGeometry>
        </mxCell>
        <mxCell id="Dfj8NLsdCSNwz5OeEImE-228" value="usu_status" style="shape=partialRectangle;connectable=0;fillColor=none;top=0;left=0;bottom=0;right=0;align=left;spacingLeft=6;overflow=hidden;" vertex="1" parent="Dfj8NLsdCSNwz5OeEImE-226">
          <mxGeometry x="30" width="150" height="30" as="geometry">
            <mxRectangle width="150" height="30" as="alternateBounds" />
          </mxGeometry>
        </mxCell>
        <mxCell id="Dfj8NLsdCSNwz5OeEImE-232" value="LIVRARIAS" style="shape=table;startSize=30;container=1;collapsible=1;childLayout=tableLayout;fixedRows=1;rowLines=0;fontStyle=1;align=center;resizeLast=1;html=1;" vertex="1" parent="1">
          <mxGeometry x="250.09" y="-94" width="180" height="330" as="geometry" />
        </mxCell>
        <mxCell id="Dfj8NLsdCSNwz5OeEImE-233" value="" style="shape=tableRow;horizontal=0;startSize=0;swimlaneHead=0;swimlaneBody=0;fillColor=none;collapsible=0;dropTarget=0;points=[[0,0.5],[1,0.5]];portConstraint=eastwest;top=0;left=0;right=0;bottom=1;" vertex="1" parent="Dfj8NLsdCSNwz5OeEImE-232">
          <mxGeometry y="30" width="180" height="30" as="geometry" />
        </mxCell>
        <mxCell id="Dfj8NLsdCSNwz5OeEImE-234" value="PK FK" style="shape=partialRectangle;connectable=0;fillColor=none;top=0;left=0;bottom=0;right=0;fontStyle=1;overflow=hidden;whiteSpace=wrap;html=1;" vertex="1" parent="Dfj8NLsdCSNwz5OeEImE-233">
          <mxGeometry width="46.00000000000023" height="30" as="geometry">
            <mxRectangle width="46.00000000000023" height="30" as="alternateBounds" />
          </mxGeometry>
        </mxCell>
        <mxCell id="Dfj8NLsdCSNwz5OeEImE-235" value="liv_id" style="shape=partialRectangle;connectable=0;fillColor=none;top=0;left=0;bottom=0;right=0;align=left;spacingLeft=6;fontStyle=5;overflow=hidden;whiteSpace=wrap;html=1;" vertex="1" parent="Dfj8NLsdCSNwz5OeEImE-233">
          <mxGeometry x="46.00000000000023" width="133.99999999999977" height="30" as="geometry">
            <mxRectangle width="133.99999999999977" height="30" as="alternateBounds" />
          </mxGeometry>
        </mxCell>
        <mxCell id="Dfj8NLsdCSNwz5OeEImE-236" value="" style="shape=tableRow;horizontal=0;startSize=0;swimlaneHead=0;swimlaneBody=0;fillColor=none;collapsible=0;dropTarget=0;points=[[0,0.5],[1,0.5]];portConstraint=eastwest;top=0;left=0;right=0;bottom=0;" vertex="1" parent="Dfj8NLsdCSNwz5OeEImE-232">
          <mxGeometry y="60" width="180" height="30" as="geometry" />
        </mxCell>
        <mxCell id="Dfj8NLsdCSNwz5OeEImE-237" value="" style="shape=partialRectangle;connectable=0;fillColor=none;top=0;left=0;bottom=0;right=0;editable=1;overflow=hidden;whiteSpace=wrap;html=1;" vertex="1" parent="Dfj8NLsdCSNwz5OeEImE-236">
          <mxGeometry width="46.00000000000023" height="30" as="geometry">
            <mxRectangle width="46.00000000000023" height="30" as="alternateBounds" />
          </mxGeometry>
        </mxCell>
        <mxCell id="Dfj8NLsdCSNwz5OeEImE-238" value="liv_nome" style="shape=partialRectangle;connectable=0;fillColor=none;top=0;left=0;bottom=0;right=0;align=left;spacingLeft=6;overflow=hidden;whiteSpace=wrap;html=1;" vertex="1" parent="Dfj8NLsdCSNwz5OeEImE-236">
          <mxGeometry x="46.00000000000023" width="133.99999999999977" height="30" as="geometry">
            <mxRectangle width="133.99999999999977" height="30" as="alternateBounds" />
          </mxGeometry>
        </mxCell>
        <mxCell id="Dfj8NLsdCSNwz5OeEImE-239" value="" style="shape=tableRow;horizontal=0;startSize=0;swimlaneHead=0;swimlaneBody=0;fillColor=none;collapsible=0;dropTarget=0;points=[[0,0.5],[1,0.5]];portConstraint=eastwest;top=0;left=0;right=0;bottom=0;" vertex="1" parent="Dfj8NLsdCSNwz5OeEImE-232">
          <mxGeometry y="90" width="180" height="30" as="geometry" />
        </mxCell>
        <mxCell id="Dfj8NLsdCSNwz5OeEImE-240" value="" style="shape=partialRectangle;connectable=0;fillColor=none;top=0;left=0;bottom=0;right=0;editable=1;overflow=hidden;" vertex="1" parent="Dfj8NLsdCSNwz5OeEImE-239">
          <mxGeometry width="46.00000000000023" height="30" as="geometry">
            <mxRectangle width="46.00000000000023" height="30" as="alternateBounds" />
          </mxGeometry>
        </mxCell>
        <mxCell id="Dfj8NLsdCSNwz5OeEImE-241" value="liv_cidade" style="shape=partialRectangle;connectable=0;fillColor=none;top=0;left=0;bottom=0;right=0;align=left;spacingLeft=6;overflow=hidden;" vertex="1" parent="Dfj8NLsdCSNwz5OeEImE-239">
          <mxGeometry x="46.00000000000023" width="133.99999999999977" height="30" as="geometry">
            <mxRectangle width="133.99999999999977" height="30" as="alternateBounds" />
          </mxGeometry>
        </mxCell>
        <mxCell id="Dfj8NLsdCSNwz5OeEImE-242" value="" style="shape=tableRow;horizontal=0;startSize=0;swimlaneHead=0;swimlaneBody=0;fillColor=none;collapsible=0;dropTarget=0;points=[[0,0.5],[1,0.5]];portConstraint=eastwest;top=0;left=0;right=0;bottom=0;" vertex="1" parent="Dfj8NLsdCSNwz5OeEImE-232">
          <mxGeometry y="120" width="180" height="30" as="geometry" />
        </mxCell>
        <mxCell id="Dfj8NLsdCSNwz5OeEImE-243" value="" style="shape=partialRectangle;connectable=0;fillColor=none;top=0;left=0;bottom=0;right=0;editable=1;overflow=hidden;" vertex="1" parent="Dfj8NLsdCSNwz5OeEImE-242">
          <mxGeometry width="46.00000000000023" height="30" as="geometry">
            <mxRectangle width="46.00000000000023" height="30" as="alternateBounds" />
          </mxGeometry>
        </mxCell>
        <mxCell id="Dfj8NLsdCSNwz5OeEImE-244" value="liv_estado" style="shape=partialRectangle;connectable=0;fillColor=none;top=0;left=0;bottom=0;right=0;align=left;spacingLeft=6;overflow=hidden;" vertex="1" parent="Dfj8NLsdCSNwz5OeEImE-242">
          <mxGeometry x="46.00000000000023" width="133.99999999999977" height="30" as="geometry">
            <mxRectangle width="133.99999999999977" height="30" as="alternateBounds" />
          </mxGeometry>
        </mxCell>
        <mxCell id="Dfj8NLsdCSNwz5OeEImE-245" value="" style="shape=tableRow;horizontal=0;startSize=0;swimlaneHead=0;swimlaneBody=0;fillColor=none;collapsible=0;dropTarget=0;points=[[0,0.5],[1,0.5]];portConstraint=eastwest;top=0;left=0;right=0;bottom=0;" vertex="1" parent="Dfj8NLsdCSNwz5OeEImE-232">
          <mxGeometry y="150" width="180" height="30" as="geometry" />
        </mxCell>
        <mxCell id="Dfj8NLsdCSNwz5OeEImE-246" value="" style="shape=partialRectangle;connectable=0;fillColor=none;top=0;left=0;bottom=0;right=0;editable=1;overflow=hidden;" vertex="1" parent="Dfj8NLsdCSNwz5OeEImE-245">
          <mxGeometry width="46.00000000000023" height="30" as="geometry">
            <mxRectangle width="46.00000000000023" height="30" as="alternateBounds" />
          </mxGeometry>
        </mxCell>
        <mxCell id="Dfj8NLsdCSNwz5OeEImE-247" value="liv_endereco" style="shape=partialRectangle;connectable=0;fillColor=none;top=0;left=0;bottom=0;right=0;align=left;spacingLeft=6;overflow=hidden;" vertex="1" parent="Dfj8NLsdCSNwz5OeEImE-245">
          <mxGeometry x="46.00000000000023" width="133.99999999999977" height="30" as="geometry">
            <mxRectangle width="133.99999999999977" height="30" as="alternateBounds" />
          </mxGeometry>
        </mxCell>
        <mxCell id="oGtWy7c-3nS0RjS3o67R-1" value="" style="shape=tableRow;horizontal=0;startSize=0;swimlaneHead=0;swimlaneBody=0;fillColor=none;collapsible=0;dropTarget=0;points=[[0,0.5],[1,0.5]];portConstraint=eastwest;top=0;left=0;right=0;bottom=0;" vertex="1" parent="Dfj8NLsdCSNwz5OeEImE-232">
          <mxGeometry y="180" width="180" height="30" as="geometry" />
        </mxCell>
        <mxCell id="oGtWy7c-3nS0RjS3o67R-2" value="" style="shape=partialRectangle;connectable=0;fillColor=none;top=0;left=0;bottom=0;right=0;editable=1;overflow=hidden;" vertex="1" parent="oGtWy7c-3nS0RjS3o67R-1">
          <mxGeometry width="46.00000000000023" height="30" as="geometry">
            <mxRectangle width="46.00000000000023" height="30" as="alternateBounds" />
          </mxGeometry>
        </mxCell>
        <mxCell id="oGtWy7c-3nS0RjS3o67R-3" value="liv_telefone" style="shape=partialRectangle;connectable=0;fillColor=none;top=0;left=0;bottom=0;right=0;align=left;spacingLeft=6;overflow=hidden;" vertex="1" parent="oGtWy7c-3nS0RjS3o67R-1">
          <mxGeometry x="46.00000000000023" width="133.99999999999977" height="30" as="geometry">
            <mxRectangle width="133.99999999999977" height="30" as="alternateBounds" />
          </mxGeometry>
        </mxCell>
        <mxCell id="Dfj8NLsdCSNwz5OeEImE-251" value="" style="shape=tableRow;horizontal=0;startSize=0;swimlaneHead=0;swimlaneBody=0;fillColor=none;collapsible=0;dropTarget=0;points=[[0,0.5],[1,0.5]];portConstraint=eastwest;top=0;left=0;right=0;bottom=0;" vertex="1" parent="Dfj8NLsdCSNwz5OeEImE-232">
          <mxGeometry y="210" width="180" height="30" as="geometry" />
        </mxCell>
        <mxCell id="Dfj8NLsdCSNwz5OeEImE-252" value="" style="shape=partialRectangle;connectable=0;fillColor=none;top=0;left=0;bottom=0;right=0;editable=1;overflow=hidden;" vertex="1" parent="Dfj8NLsdCSNwz5OeEImE-251">
          <mxGeometry width="46.00000000000023" height="30" as="geometry">
            <mxRectangle width="46.00000000000023" height="30" as="alternateBounds" />
          </mxGeometry>
        </mxCell>
        <mxCell id="Dfj8NLsdCSNwz5OeEImE-253" value="liv_email" style="shape=partialRectangle;connectable=0;fillColor=none;top=0;left=0;bottom=0;right=0;align=left;spacingLeft=6;overflow=hidden;" vertex="1" parent="Dfj8NLsdCSNwz5OeEImE-251">
          <mxGeometry x="46.00000000000023" width="133.99999999999977" height="30" as="geometry">
            <mxRectangle width="133.99999999999977" height="30" as="alternateBounds" />
          </mxGeometry>
        </mxCell>
        <mxCell id="Dfj8NLsdCSNwz5OeEImE-254" value="" style="shape=tableRow;horizontal=0;startSize=0;swimlaneHead=0;swimlaneBody=0;fillColor=none;collapsible=0;dropTarget=0;points=[[0,0.5],[1,0.5]];portConstraint=eastwest;top=0;left=0;right=0;bottom=0;" vertex="1" parent="Dfj8NLsdCSNwz5OeEImE-232">
          <mxGeometry y="240" width="180" height="30" as="geometry" />
        </mxCell>
        <mxCell id="Dfj8NLsdCSNwz5OeEImE-255" value="" style="shape=partialRectangle;connectable=0;fillColor=none;top=0;left=0;bottom=0;right=0;editable=1;overflow=hidden;" vertex="1" parent="Dfj8NLsdCSNwz5OeEImE-254">
          <mxGeometry width="46.00000000000023" height="30" as="geometry">
            <mxRectangle width="46.00000000000023" height="30" as="alternateBounds" />
          </mxGeometry>
        </mxCell>
        <mxCell id="Dfj8NLsdCSNwz5OeEImE-256" value="liv_foto" style="shape=partialRectangle;connectable=0;fillColor=none;top=0;left=0;bottom=0;right=0;align=left;spacingLeft=6;overflow=hidden;" vertex="1" parent="Dfj8NLsdCSNwz5OeEImE-254">
          <mxGeometry x="46.00000000000023" width="133.99999999999977" height="30" as="geometry">
            <mxRectangle width="133.99999999999977" height="30" as="alternateBounds" />
          </mxGeometry>
        </mxCell>
        <mxCell id="Dfj8NLsdCSNwz5OeEImE-257" value="" style="shape=tableRow;horizontal=0;startSize=0;swimlaneHead=0;swimlaneBody=0;fillColor=none;collapsible=0;dropTarget=0;points=[[0,0.5],[1,0.5]];portConstraint=eastwest;top=0;left=0;right=0;bottom=0;" vertex="1" parent="Dfj8NLsdCSNwz5OeEImE-232">
          <mxGeometry y="270" width="180" height="30" as="geometry" />
        </mxCell>
        <mxCell id="Dfj8NLsdCSNwz5OeEImE-258" value="" style="shape=partialRectangle;connectable=0;fillColor=none;top=0;left=0;bottom=0;right=0;editable=1;overflow=hidden;" vertex="1" parent="Dfj8NLsdCSNwz5OeEImE-257">
          <mxGeometry width="46.00000000000023" height="30" as="geometry">
            <mxRectangle width="46.00000000000023" height="30" as="alternateBounds" />
          </mxGeometry>
        </mxCell>
        <mxCell id="Dfj8NLsdCSNwz5OeEImE-259" value="liv_perfil" style="shape=partialRectangle;connectable=0;fillColor=none;top=0;left=0;bottom=0;right=0;align=left;spacingLeft=6;overflow=hidden;" vertex="1" parent="Dfj8NLsdCSNwz5OeEImE-257">
          <mxGeometry x="46.00000000000023" width="133.99999999999977" height="30" as="geometry">
            <mxRectangle width="133.99999999999977" height="30" as="alternateBounds" />
          </mxGeometry>
        </mxCell>
        <mxCell id="Dfj8NLsdCSNwz5OeEImE-260" value="" style="shape=tableRow;horizontal=0;startSize=0;swimlaneHead=0;swimlaneBody=0;fillColor=none;collapsible=0;dropTarget=0;points=[[0,0.5],[1,0.5]];portConstraint=eastwest;top=0;left=0;right=0;bottom=0;" vertex="1" parent="Dfj8NLsdCSNwz5OeEImE-232">
          <mxGeometry y="300" width="180" height="30" as="geometry" />
        </mxCell>
        <mxCell id="Dfj8NLsdCSNwz5OeEImE-261" value="" style="shape=partialRectangle;connectable=0;fillColor=none;top=0;left=0;bottom=0;right=0;editable=1;overflow=hidden;" vertex="1" parent="Dfj8NLsdCSNwz5OeEImE-260">
          <mxGeometry width="46.00000000000023" height="30" as="geometry">
            <mxRectangle width="46.00000000000023" height="30" as="alternateBounds" />
          </mxGeometry>
        </mxCell>
        <mxCell id="Dfj8NLsdCSNwz5OeEImE-262" value="liv_social" style="shape=partialRectangle;connectable=0;fillColor=none;top=0;left=0;bottom=0;right=0;align=left;spacingLeft=6;overflow=hidden;" vertex="1" parent="Dfj8NLsdCSNwz5OeEImE-260">
          <mxGeometry x="46.00000000000023" width="133.99999999999977" height="30" as="geometry">
            <mxRectangle width="133.99999999999977" height="30" as="alternateBounds" />
          </mxGeometry>
        </mxCell>
        <mxCell id="Dfj8NLsdCSNwz5OeEImE-263" value="RESENHISTAS" style="shape=table;startSize=30;container=1;collapsible=1;childLayout=tableLayout;fixedRows=1;rowLines=0;fontStyle=1;align=center;resizeLast=1;html=1;" vertex="1" parent="1">
          <mxGeometry x="-385.00000000000006" y="-94" width="180" height="303.75" as="geometry" />
        </mxCell>
        <mxCell id="Dfj8NLsdCSNwz5OeEImE-264" value="" style="shape=tableRow;horizontal=0;startSize=0;swimlaneHead=0;swimlaneBody=0;fillColor=none;collapsible=0;dropTarget=0;points=[[0,0.5],[1,0.5]];portConstraint=eastwest;top=0;left=0;right=0;bottom=1;" vertex="1" parent="Dfj8NLsdCSNwz5OeEImE-263">
          <mxGeometry y="30" width="180" height="30" as="geometry" />
        </mxCell>
        <mxCell id="Dfj8NLsdCSNwz5OeEImE-265" value="PK FK" style="shape=partialRectangle;connectable=0;fillColor=none;top=0;left=0;bottom=0;right=0;fontStyle=1;overflow=hidden;whiteSpace=wrap;html=1;" vertex="1" parent="Dfj8NLsdCSNwz5OeEImE-264">
          <mxGeometry width="50.090000000000146" height="30" as="geometry">
            <mxRectangle width="50.090000000000146" height="30" as="alternateBounds" />
          </mxGeometry>
        </mxCell>
        <mxCell id="Dfj8NLsdCSNwz5OeEImE-266" value="res_id" style="shape=partialRectangle;connectable=0;fillColor=none;top=0;left=0;bottom=0;right=0;align=left;spacingLeft=6;fontStyle=5;overflow=hidden;whiteSpace=wrap;html=1;" vertex="1" parent="Dfj8NLsdCSNwz5OeEImE-264">
          <mxGeometry x="50.090000000000146" width="129.90999999999985" height="30" as="geometry">
            <mxRectangle width="129.90999999999985" height="30" as="alternateBounds" />
          </mxGeometry>
        </mxCell>
        <mxCell id="tPnun-muu2tYVsJTyNDv-32" value="" style="shape=tableRow;horizontal=0;startSize=0;swimlaneHead=0;swimlaneBody=0;fillColor=none;collapsible=0;dropTarget=0;points=[[0,0.5],[1,0.5]];portConstraint=eastwest;top=0;left=0;right=0;bottom=0;" vertex="1" parent="Dfj8NLsdCSNwz5OeEImE-263">
          <mxGeometry y="60" width="180" height="30" as="geometry" />
        </mxCell>
        <mxCell id="tPnun-muu2tYVsJTyNDv-33" value="FK" style="shape=partialRectangle;connectable=0;fillColor=none;top=0;left=0;bottom=0;right=0;editable=1;overflow=hidden;" vertex="1" parent="tPnun-muu2tYVsJTyNDv-32">
          <mxGeometry width="50.090000000000146" height="30" as="geometry">
            <mxRectangle width="50.090000000000146" height="30" as="alternateBounds" />
          </mxGeometry>
        </mxCell>
        <mxCell id="tPnun-muu2tYVsJTyNDv-34" value="tit_id" style="shape=partialRectangle;connectable=0;fillColor=none;top=0;left=0;bottom=0;right=0;align=left;spacingLeft=6;overflow=hidden;" vertex="1" parent="tPnun-muu2tYVsJTyNDv-32">
          <mxGeometry x="50.090000000000146" width="129.90999999999985" height="30" as="geometry">
            <mxRectangle width="129.90999999999985" height="30" as="alternateBounds" />
          </mxGeometry>
        </mxCell>
        <mxCell id="Dfj8NLsdCSNwz5OeEImE-267" value="" style="shape=tableRow;horizontal=0;startSize=0;swimlaneHead=0;swimlaneBody=0;fillColor=none;collapsible=0;dropTarget=0;points=[[0,0.5],[1,0.5]];portConstraint=eastwest;top=0;left=0;right=0;bottom=0;" vertex="1" parent="Dfj8NLsdCSNwz5OeEImE-263">
          <mxGeometry y="90" width="180" height="34" as="geometry" />
        </mxCell>
        <mxCell id="Dfj8NLsdCSNwz5OeEImE-268" value="" style="shape=partialRectangle;connectable=0;fillColor=none;top=0;left=0;bottom=0;right=0;editable=1;overflow=hidden;whiteSpace=wrap;html=1;" vertex="1" parent="Dfj8NLsdCSNwz5OeEImE-267">
          <mxGeometry width="50.090000000000146" height="34" as="geometry">
            <mxRectangle width="50.090000000000146" height="34" as="alternateBounds" />
          </mxGeometry>
        </mxCell>
        <mxCell id="Dfj8NLsdCSNwz5OeEImE-269" value="res_nome_fantasia" style="shape=partialRectangle;connectable=0;fillColor=none;top=0;left=0;bottom=0;right=0;align=left;spacingLeft=6;overflow=hidden;whiteSpace=wrap;html=1;" vertex="1" parent="Dfj8NLsdCSNwz5OeEImE-267">
          <mxGeometry x="50.090000000000146" width="129.90999999999985" height="34" as="geometry">
            <mxRectangle width="129.90999999999985" height="34" as="alternateBounds" />
          </mxGeometry>
        </mxCell>
        <mxCell id="Dfj8NLsdCSNwz5OeEImE-270" value="" style="shape=tableRow;horizontal=0;startSize=0;swimlaneHead=0;swimlaneBody=0;fillColor=none;collapsible=0;dropTarget=0;points=[[0,0.5],[1,0.5]];portConstraint=eastwest;top=0;left=0;right=0;bottom=0;" vertex="1" parent="Dfj8NLsdCSNwz5OeEImE-263">
          <mxGeometry y="124" width="180" height="30" as="geometry" />
        </mxCell>
        <mxCell id="Dfj8NLsdCSNwz5OeEImE-271" value="" style="shape=partialRectangle;connectable=0;fillColor=none;top=0;left=0;bottom=0;right=0;editable=1;overflow=hidden;whiteSpace=wrap;html=1;" vertex="1" parent="Dfj8NLsdCSNwz5OeEImE-270">
          <mxGeometry width="50.090000000000146" height="30" as="geometry">
            <mxRectangle width="50.090000000000146" height="30" as="alternateBounds" />
          </mxGeometry>
        </mxCell>
        <mxCell id="Dfj8NLsdCSNwz5OeEImE-272" value="res_cidade" style="shape=partialRectangle;connectable=0;fillColor=none;top=0;left=0;bottom=0;right=0;align=left;spacingLeft=6;overflow=hidden;whiteSpace=wrap;html=1;" vertex="1" parent="Dfj8NLsdCSNwz5OeEImE-270">
          <mxGeometry x="50.090000000000146" width="129.90999999999985" height="30" as="geometry">
            <mxRectangle width="129.90999999999985" height="30" as="alternateBounds" />
          </mxGeometry>
        </mxCell>
        <mxCell id="Dfj8NLsdCSNwz5OeEImE-273" value="" style="shape=tableRow;horizontal=0;startSize=0;swimlaneHead=0;swimlaneBody=0;fillColor=none;collapsible=0;dropTarget=0;points=[[0,0.5],[1,0.5]];portConstraint=eastwest;top=0;left=0;right=0;bottom=0;" vertex="1" parent="Dfj8NLsdCSNwz5OeEImE-263">
          <mxGeometry y="154" width="180" height="30" as="geometry" />
        </mxCell>
        <mxCell id="Dfj8NLsdCSNwz5OeEImE-274" value="" style="shape=partialRectangle;connectable=0;fillColor=none;top=0;left=0;bottom=0;right=0;editable=1;overflow=hidden;" vertex="1" parent="Dfj8NLsdCSNwz5OeEImE-273">
          <mxGeometry width="50.090000000000146" height="30" as="geometry">
            <mxRectangle width="50.090000000000146" height="30" as="alternateBounds" />
          </mxGeometry>
        </mxCell>
        <mxCell id="Dfj8NLsdCSNwz5OeEImE-275" value="res_estado" style="shape=partialRectangle;connectable=0;fillColor=none;top=0;left=0;bottom=0;right=0;align=left;spacingLeft=6;overflow=hidden;" vertex="1" parent="Dfj8NLsdCSNwz5OeEImE-273">
          <mxGeometry x="50.090000000000146" width="129.90999999999985" height="30" as="geometry">
            <mxRectangle width="129.90999999999985" height="30" as="alternateBounds" />
          </mxGeometry>
        </mxCell>
        <mxCell id="Dfj8NLsdCSNwz5OeEImE-276" value="" style="shape=tableRow;horizontal=0;startSize=0;swimlaneHead=0;swimlaneBody=0;fillColor=none;collapsible=0;dropTarget=0;points=[[0,0.5],[1,0.5]];portConstraint=eastwest;top=0;left=0;right=0;bottom=0;" vertex="1" parent="Dfj8NLsdCSNwz5OeEImE-263">
          <mxGeometry y="184" width="180" height="30" as="geometry" />
        </mxCell>
        <mxCell id="Dfj8NLsdCSNwz5OeEImE-277" value="" style="shape=partialRectangle;connectable=0;fillColor=none;top=0;left=0;bottom=0;right=0;editable=1;overflow=hidden;" vertex="1" parent="Dfj8NLsdCSNwz5OeEImE-276">
          <mxGeometry width="50.090000000000146" height="30" as="geometry">
            <mxRectangle width="50.090000000000146" height="30" as="alternateBounds" />
          </mxGeometry>
        </mxCell>
        <mxCell id="Dfj8NLsdCSNwz5OeEImE-278" value="res_telefoneÂ Â " style="shape=partialRectangle;connectable=0;fillColor=none;top=0;left=0;bottom=0;right=0;align=left;spacingLeft=6;overflow=hidden;" vertex="1" parent="Dfj8NLsdCSNwz5OeEImE-276">
          <mxGeometry x="50.090000000000146" width="129.90999999999985" height="30" as="geometry">
            <mxRectangle width="129.90999999999985" height="30" as="alternateBounds" />
          </mxGeometry>
        </mxCell>
        <mxCell id="Dfj8NLsdCSNwz5OeEImE-279" value="" style="shape=tableRow;horizontal=0;startSize=0;swimlaneHead=0;swimlaneBody=0;fillColor=none;collapsible=0;dropTarget=0;points=[[0,0.5],[1,0.5]];portConstraint=eastwest;top=0;left=0;right=0;bottom=0;" vertex="1" parent="Dfj8NLsdCSNwz5OeEImE-263">
          <mxGeometry y="214" width="180" height="30" as="geometry" />
        </mxCell>
        <mxCell id="Dfj8NLsdCSNwz5OeEImE-280" value="" style="shape=partialRectangle;connectable=0;fillColor=none;top=0;left=0;bottom=0;right=0;editable=1;overflow=hidden;" vertex="1" parent="Dfj8NLsdCSNwz5OeEImE-279">
          <mxGeometry width="50.090000000000146" height="30" as="geometry">
            <mxRectangle width="50.090000000000146" height="30" as="alternateBounds" />
          </mxGeometry>
        </mxCell>
        <mxCell id="Dfj8NLsdCSNwz5OeEImE-281" value="res_foto" style="shape=partialRectangle;connectable=0;fillColor=none;top=0;left=0;bottom=0;right=0;align=left;spacingLeft=6;overflow=hidden;" vertex="1" parent="Dfj8NLsdCSNwz5OeEImE-279">
          <mxGeometry x="50.090000000000146" width="129.90999999999985" height="30" as="geometry">
            <mxRectangle width="129.90999999999985" height="30" as="alternateBounds" />
          </mxGeometry>
        </mxCell>
        <mxCell id="Dfj8NLsdCSNwz5OeEImE-282" value="" style="shape=tableRow;horizontal=0;startSize=0;swimlaneHead=0;swimlaneBody=0;fillColor=none;collapsible=0;dropTarget=0;points=[[0,0.5],[1,0.5]];portConstraint=eastwest;top=0;left=0;right=0;bottom=0;" vertex="1" parent="Dfj8NLsdCSNwz5OeEImE-263">
          <mxGeometry y="244" width="180" height="30" as="geometry" />
        </mxCell>
        <mxCell id="Dfj8NLsdCSNwz5OeEImE-283" value="" style="shape=partialRectangle;connectable=0;fillColor=none;top=0;left=0;bottom=0;right=0;editable=1;overflow=hidden;" vertex="1" parent="Dfj8NLsdCSNwz5OeEImE-282">
          <mxGeometry width="50.090000000000146" height="30" as="geometry">
            <mxRectangle width="50.090000000000146" height="30" as="alternateBounds" />
          </mxGeometry>
        </mxCell>
        <mxCell id="Dfj8NLsdCSNwz5OeEImE-284" value="res_perfil" style="shape=partialRectangle;connectable=0;fillColor=none;top=0;left=0;bottom=0;right=0;align=left;spacingLeft=6;overflow=hidden;" vertex="1" parent="Dfj8NLsdCSNwz5OeEImE-282">
          <mxGeometry x="50.090000000000146" width="129.90999999999985" height="30" as="geometry">
            <mxRectangle width="129.90999999999985" height="30" as="alternateBounds" />
          </mxGeometry>
        </mxCell>
        <mxCell id="Dfj8NLsdCSNwz5OeEImE-285" value="" style="shape=tableRow;horizontal=0;startSize=0;swimlaneHead=0;swimlaneBody=0;fillColor=none;collapsible=0;dropTarget=0;points=[[0,0.5],[1,0.5]];portConstraint=eastwest;top=0;left=0;right=0;bottom=0;" vertex="1" parent="Dfj8NLsdCSNwz5OeEImE-263">
          <mxGeometry y="274" width="180" height="30" as="geometry" />
        </mxCell>
        <mxCell id="Dfj8NLsdCSNwz5OeEImE-286" value="" style="shape=partialRectangle;connectable=0;fillColor=none;top=0;left=0;bottom=0;right=0;editable=1;overflow=hidden;" vertex="1" parent="Dfj8NLsdCSNwz5OeEImE-285">
          <mxGeometry width="50.090000000000146" height="30" as="geometry">
            <mxRectangle width="50.090000000000146" height="30" as="alternateBounds" />
          </mxGeometry>
        </mxCell>
        <mxCell id="Dfj8NLsdCSNwz5OeEImE-287" value="res_social" style="shape=partialRectangle;connectable=0;fillColor=none;top=0;left=0;bottom=0;right=0;align=left;spacingLeft=6;overflow=hidden;" vertex="1" parent="Dfj8NLsdCSNwz5OeEImE-285">
          <mxGeometry x="50.090000000000146" width="129.90999999999985" height="30" as="geometry">
            <mxRectangle width="129.90999999999985" height="30" as="alternateBounds" />
          </mxGeometry>
        </mxCell>
        <mxCell id="Dfj8NLsdCSNwz5OeEImE-288" value="RESENHAS" style="shape=table;startSize=30;container=1;collapsible=1;childLayout=tableLayout;fixedRows=1;rowLines=0;fontStyle=1;align=center;resizeLast=1;html=1;" vertex="1" parent="1">
          <mxGeometry x="-385.00000000000006" y="273" width="180" height="300" as="geometry" />
        </mxCell>
        <mxCell id="Dfj8NLsdCSNwz5OeEImE-289" value="" style="shape=tableRow;horizontal=0;startSize=0;swimlaneHead=0;swimlaneBody=0;fillColor=none;collapsible=0;dropTarget=0;points=[[0,0.5],[1,0.5]];portConstraint=eastwest;top=0;left=0;right=0;bottom=1;" vertex="1" parent="Dfj8NLsdCSNwz5OeEImE-288">
          <mxGeometry y="30" width="180" height="30" as="geometry" />
        </mxCell>
        <mxCell id="Dfj8NLsdCSNwz5OeEImE-290" value="PK" style="shape=partialRectangle;connectable=0;fillColor=none;top=0;left=0;bottom=0;right=0;fontStyle=1;overflow=hidden;whiteSpace=wrap;html=1;" vertex="1" parent="Dfj8NLsdCSNwz5OeEImE-289">
          <mxGeometry width="30" height="30" as="geometry">
            <mxRectangle width="30" height="30" as="alternateBounds" />
          </mxGeometry>
        </mxCell>
        <mxCell id="Dfj8NLsdCSNwz5OeEImE-291" value="resenha_id" style="shape=partialRectangle;connectable=0;fillColor=none;top=0;left=0;bottom=0;right=0;align=left;spacingLeft=6;fontStyle=5;overflow=hidden;whiteSpace=wrap;html=1;" vertex="1" parent="Dfj8NLsdCSNwz5OeEImE-289">
          <mxGeometry x="30" width="150" height="30" as="geometry">
            <mxRectangle width="150" height="30" as="alternateBounds" />
          </mxGeometry>
        </mxCell>
        <mxCell id="Dfj8NLsdCSNwz5OeEImE-292" value="" style="shape=tableRow;horizontal=0;startSize=0;swimlaneHead=0;swimlaneBody=0;fillColor=none;collapsible=0;dropTarget=0;points=[[0,0.5],[1,0.5]];portConstraint=eastwest;top=0;left=0;right=0;bottom=0;" vertex="1" parent="Dfj8NLsdCSNwz5OeEImE-288">
          <mxGeometry y="60" width="180" height="30" as="geometry" />
        </mxCell>
        <mxCell id="Dfj8NLsdCSNwz5OeEImE-293" value="&lt;b&gt;FK&lt;/b&gt;" style="shape=partialRectangle;connectable=0;fillColor=none;top=0;left=0;bottom=0;right=0;editable=1;overflow=hidden;whiteSpace=wrap;html=1;" vertex="1" parent="Dfj8NLsdCSNwz5OeEImE-292">
          <mxGeometry width="30" height="30" as="geometry">
            <mxRectangle width="30" height="30" as="alternateBounds" />
          </mxGeometry>
        </mxCell>
        <mxCell id="Dfj8NLsdCSNwz5OeEImE-294" value="res_id" style="shape=partialRectangle;connectable=0;fillColor=none;top=0;left=0;bottom=0;right=0;align=left;spacingLeft=6;overflow=hidden;whiteSpace=wrap;html=1;" vertex="1" parent="Dfj8NLsdCSNwz5OeEImE-292">
          <mxGeometry x="30" width="150" height="30" as="geometry">
            <mxRectangle width="150" height="30" as="alternateBounds" />
          </mxGeometry>
        </mxCell>
        <mxCell id="Dfj8NLsdCSNwz5OeEImE-295" value="" style="shape=tableRow;horizontal=0;startSize=0;swimlaneHead=0;swimlaneBody=0;fillColor=none;collapsible=0;dropTarget=0;points=[[0,0.5],[1,0.5]];portConstraint=eastwest;top=0;left=0;right=0;bottom=0;" vertex="1" parent="Dfj8NLsdCSNwz5OeEImE-288">
          <mxGeometry y="90" width="180" height="30" as="geometry" />
        </mxCell>
        <mxCell id="Dfj8NLsdCSNwz5OeEImE-296" value="FK" style="shape=partialRectangle;connectable=0;fillColor=none;top=0;left=0;bottom=0;right=0;fontStyle=0;overflow=hidden;whiteSpace=wrap;html=1;" vertex="1" parent="Dfj8NLsdCSNwz5OeEImE-295">
          <mxGeometry width="30" height="30" as="geometry">
            <mxRectangle width="30" height="30" as="alternateBounds" />
          </mxGeometry>
        </mxCell>
        <mxCell id="Dfj8NLsdCSNwz5OeEImE-297" value="livro_id" style="shape=partialRectangle;connectable=0;fillColor=none;top=0;left=0;bottom=0;right=0;align=left;spacingLeft=6;fontStyle=0;overflow=hidden;whiteSpace=wrap;html=1;" vertex="1" parent="Dfj8NLsdCSNwz5OeEImE-295">
          <mxGeometry x="30" width="150" height="30" as="geometry">
            <mxRectangle width="150" height="30" as="alternateBounds" />
          </mxGeometry>
        </mxCell>
        <mxCell id="Dfj8NLsdCSNwz5OeEImE-298" value="" style="shape=tableRow;horizontal=0;startSize=0;swimlaneHead=0;swimlaneBody=0;fillColor=none;collapsible=0;dropTarget=0;points=[[0,0.5],[1,0.5]];portConstraint=eastwest;top=0;left=0;right=0;bottom=0;" vertex="1" parent="Dfj8NLsdCSNwz5OeEImE-288">
          <mxGeometry y="120" width="180" height="30" as="geometry" />
        </mxCell>
        <mxCell id="Dfj8NLsdCSNwz5OeEImE-299" value="" style="shape=partialRectangle;connectable=0;fillColor=none;top=0;left=0;bottom=0;right=0;editable=1;overflow=hidden;" vertex="1" parent="Dfj8NLsdCSNwz5OeEImE-298">
          <mxGeometry width="30" height="30" as="geometry">
            <mxRectangle width="30" height="30" as="alternateBounds" />
          </mxGeometry>
        </mxCell>
        <mxCell id="Dfj8NLsdCSNwz5OeEImE-300" value="resenha_titulo" style="shape=partialRectangle;connectable=0;fillColor=none;top=0;left=0;bottom=0;right=0;align=left;spacingLeft=6;overflow=hidden;" vertex="1" parent="Dfj8NLsdCSNwz5OeEImE-298">
          <mxGeometry x="30" width="150" height="30" as="geometry">
            <mxRectangle width="150" height="30" as="alternateBounds" />
          </mxGeometry>
        </mxCell>
        <mxCell id="Dfj8NLsdCSNwz5OeEImE-304" value="" style="shape=tableRow;horizontal=0;startSize=0;swimlaneHead=0;swimlaneBody=0;fillColor=none;collapsible=0;dropTarget=0;points=[[0,0.5],[1,0.5]];portConstraint=eastwest;top=0;left=0;right=0;bottom=0;" vertex="1" parent="Dfj8NLsdCSNwz5OeEImE-288">
          <mxGeometry y="150" width="180" height="30" as="geometry" />
        </mxCell>
        <mxCell id="Dfj8NLsdCSNwz5OeEImE-305" value="" style="shape=partialRectangle;connectable=0;fillColor=none;top=0;left=0;bottom=0;right=0;editable=1;overflow=hidden;" vertex="1" parent="Dfj8NLsdCSNwz5OeEImE-304">
          <mxGeometry width="30" height="30" as="geometry">
            <mxRectangle width="30" height="30" as="alternateBounds" />
          </mxGeometry>
        </mxCell>
        <mxCell id="Dfj8NLsdCSNwz5OeEImE-306" value="resenha_texto" style="shape=partialRectangle;connectable=0;fillColor=none;top=0;left=0;bottom=0;right=0;align=left;spacingLeft=6;overflow=hidden;" vertex="1" parent="Dfj8NLsdCSNwz5OeEImE-304">
          <mxGeometry x="30" width="150" height="30" as="geometry">
            <mxRectangle width="150" height="30" as="alternateBounds" />
          </mxGeometry>
        </mxCell>
        <mxCell id="Dfj8NLsdCSNwz5OeEImE-307" value="" style="shape=tableRow;horizontal=0;startSize=0;swimlaneHead=0;swimlaneBody=0;fillColor=none;collapsible=0;dropTarget=0;points=[[0,0.5],[1,0.5]];portConstraint=eastwest;top=0;left=0;right=0;bottom=0;" vertex="1" parent="Dfj8NLsdCSNwz5OeEImE-288">
          <mxGeometry y="180" width="180" height="30" as="geometry" />
        </mxCell>
        <mxCell id="Dfj8NLsdCSNwz5OeEImE-308" value="" style="shape=partialRectangle;connectable=0;fillColor=none;top=0;left=0;bottom=0;right=0;editable=1;overflow=hidden;" vertex="1" parent="Dfj8NLsdCSNwz5OeEImE-307">
          <mxGeometry width="30" height="30" as="geometry">
            <mxRectangle width="30" height="30" as="alternateBounds" />
          </mxGeometry>
        </mxCell>
        <mxCell id="Dfj8NLsdCSNwz5OeEImE-309" value="resenha_status" style="shape=partialRectangle;connectable=0;fillColor=none;top=0;left=0;bottom=0;right=0;align=left;spacingLeft=6;overflow=hidden;" vertex="1" parent="Dfj8NLsdCSNwz5OeEImE-307">
          <mxGeometry x="30" width="150" height="30" as="geometry">
            <mxRectangle width="150" height="30" as="alternateBounds" />
          </mxGeometry>
        </mxCell>
        <mxCell id="qsq8mV6GAj0yEigdNPfl-19" value="" style="shape=tableRow;horizontal=0;startSize=0;swimlaneHead=0;swimlaneBody=0;fillColor=none;collapsible=0;dropTarget=0;points=[[0,0.5],[1,0.5]];portConstraint=eastwest;top=0;left=0;right=0;bottom=0;" vertex="1" parent="Dfj8NLsdCSNwz5OeEImE-288">
          <mxGeometry y="210" width="180" height="30" as="geometry" />
        </mxCell>
        <mxCell id="qsq8mV6GAj0yEigdNPfl-20" value="" style="shape=partialRectangle;connectable=0;fillColor=none;top=0;left=0;bottom=0;right=0;editable=1;overflow=hidden;" vertex="1" parent="qsq8mV6GAj0yEigdNPfl-19">
          <mxGeometry width="30" height="30" as="geometry">
            <mxRectangle width="30" height="30" as="alternateBounds" />
          </mxGeometry>
        </mxCell>
        <mxCell id="qsq8mV6GAj0yEigdNPfl-21" value="resenha_avaliacao" style="shape=partialRectangle;connectable=0;fillColor=none;top=0;left=0;bottom=0;right=0;align=left;spacingLeft=6;overflow=hidden;" vertex="1" parent="qsq8mV6GAj0yEigdNPfl-19">
          <mxGeometry x="30" width="150" height="30" as="geometry">
            <mxRectangle width="150" height="30" as="alternateBounds" />
          </mxGeometry>
        </mxCell>
        <mxCell id="Dfj8NLsdCSNwz5OeEImE-313" value="" style="shape=tableRow;horizontal=0;startSize=0;swimlaneHead=0;swimlaneBody=0;fillColor=none;collapsible=0;dropTarget=0;points=[[0,0.5],[1,0.5]];portConstraint=eastwest;top=0;left=0;right=0;bottom=0;" vertex="1" parent="Dfj8NLsdCSNwz5OeEImE-288">
          <mxGeometry y="240" width="180" height="30" as="geometry" />
        </mxCell>
        <mxCell id="Dfj8NLsdCSNwz5OeEImE-314" value="" style="shape=partialRectangle;connectable=0;fillColor=none;top=0;left=0;bottom=0;right=0;editable=1;overflow=hidden;" vertex="1" parent="Dfj8NLsdCSNwz5OeEImE-313">
          <mxGeometry width="30" height="30" as="geometry">
            <mxRectangle width="30" height="30" as="alternateBounds" />
          </mxGeometry>
        </mxCell>
        <mxCell id="Dfj8NLsdCSNwz5OeEImE-315" value="resenha_dtpublicacao" style="shape=partialRectangle;connectable=0;fillColor=none;top=0;left=0;bottom=0;right=0;align=left;spacingLeft=6;overflow=hidden;" vertex="1" parent="Dfj8NLsdCSNwz5OeEImE-313">
          <mxGeometry x="30" width="150" height="30" as="geometry">
            <mxRectangle width="150" height="30" as="alternateBounds" />
          </mxGeometry>
        </mxCell>
        <mxCell id="Dfj8NLsdCSNwz5OeEImE-316" value="" style="shape=tableRow;horizontal=0;startSize=0;swimlaneHead=0;swimlaneBody=0;fillColor=none;collapsible=0;dropTarget=0;points=[[0,0.5],[1,0.5]];portConstraint=eastwest;top=0;left=0;right=0;bottom=0;" vertex="1" parent="Dfj8NLsdCSNwz5OeEImE-288">
          <mxGeometry y="270" width="180" height="30" as="geometry" />
        </mxCell>
        <mxCell id="Dfj8NLsdCSNwz5OeEImE-317" value="" style="shape=partialRectangle;connectable=0;fillColor=none;top=0;left=0;bottom=0;right=0;editable=1;overflow=hidden;" vertex="1" parent="Dfj8NLsdCSNwz5OeEImE-316">
          <mxGeometry width="30" height="30" as="geometry">
            <mxRectangle width="30" height="30" as="alternateBounds" />
          </mxGeometry>
        </mxCell>
        <mxCell id="Dfj8NLsdCSNwz5OeEImE-318" value="resenha_dtatualizacao" style="shape=partialRectangle;connectable=0;fillColor=none;top=0;left=0;bottom=0;right=0;align=left;spacingLeft=6;overflow=hidden;" vertex="1" parent="Dfj8NLsdCSNwz5OeEImE-316">
          <mxGeometry x="30" width="150" height="30" as="geometry">
            <mxRectangle width="150" height="30" as="alternateBounds" />
          </mxGeometry>
        </mxCell>
        <mxCell id="Dfj8NLsdCSNwz5OeEImE-319" value="AUTORES" style="shape=table;startSize=30;container=1;collapsible=1;childLayout=tableLayout;fixedRows=1;rowLines=0;fontStyle=1;align=center;resizeLast=1;html=1;" vertex="1" parent="1">
          <mxGeometry x="297" y="599" width="180" height="150" as="geometry" />
        </mxCell>
        <mxCell id="Dfj8NLsdCSNwz5OeEImE-320" value="" style="shape=tableRow;horizontal=0;startSize=0;swimlaneHead=0;swimlaneBody=0;fillColor=none;collapsible=0;dropTarget=0;points=[[0,0.5],[1,0.5]];portConstraint=eastwest;top=0;left=0;right=0;bottom=1;" vertex="1" parent="Dfj8NLsdCSNwz5OeEImE-319">
          <mxGeometry y="30" width="180" height="30" as="geometry" />
        </mxCell>
        <mxCell id="Dfj8NLsdCSNwz5OeEImE-321" value="PK" style="shape=partialRectangle;connectable=0;fillColor=none;top=0;left=0;bottom=0;right=0;fontStyle=1;overflow=hidden;whiteSpace=wrap;html=1;" vertex="1" parent="Dfj8NLsdCSNwz5OeEImE-320">
          <mxGeometry width="30" height="30" as="geometry">
            <mxRectangle width="30" height="30" as="alternateBounds" />
          </mxGeometry>
        </mxCell>
        <mxCell id="Dfj8NLsdCSNwz5OeEImE-322" value="aut_id" style="shape=partialRectangle;connectable=0;fillColor=none;top=0;left=0;bottom=0;right=0;align=left;spacingLeft=6;fontStyle=5;overflow=hidden;whiteSpace=wrap;html=1;" vertex="1" parent="Dfj8NLsdCSNwz5OeEImE-320">
          <mxGeometry x="30" width="150" height="30" as="geometry">
            <mxRectangle width="150" height="30" as="alternateBounds" />
          </mxGeometry>
        </mxCell>
        <mxCell id="Dfj8NLsdCSNwz5OeEImE-323" value="" style="shape=tableRow;horizontal=0;startSize=0;swimlaneHead=0;swimlaneBody=0;fillColor=none;collapsible=0;dropTarget=0;points=[[0,0.5],[1,0.5]];portConstraint=eastwest;top=0;left=0;right=0;bottom=0;" vertex="1" parent="Dfj8NLsdCSNwz5OeEImE-319">
          <mxGeometry y="60" width="180" height="30" as="geometry" />
        </mxCell>
        <mxCell id="Dfj8NLsdCSNwz5OeEImE-324" value="" style="shape=partialRectangle;connectable=0;fillColor=none;top=0;left=0;bottom=0;right=0;editable=1;overflow=hidden;whiteSpace=wrap;html=1;" vertex="1" parent="Dfj8NLsdCSNwz5OeEImE-323">
          <mxGeometry width="30" height="30" as="geometry">
            <mxRectangle width="30" height="30" as="alternateBounds" />
          </mxGeometry>
        </mxCell>
        <mxCell id="Dfj8NLsdCSNwz5OeEImE-325" value="aut_nome" style="shape=partialRectangle;connectable=0;fillColor=none;top=0;left=0;bottom=0;right=0;align=left;spacingLeft=6;overflow=hidden;whiteSpace=wrap;html=1;" vertex="1" parent="Dfj8NLsdCSNwz5OeEImE-323">
          <mxGeometry x="30" width="150" height="30" as="geometry">
            <mxRectangle width="150" height="30" as="alternateBounds" />
          </mxGeometry>
        </mxCell>
        <mxCell id="Dfj8NLsdCSNwz5OeEImE-326" value="" style="shape=tableRow;horizontal=0;startSize=0;swimlaneHead=0;swimlaneBody=0;fillColor=none;collapsible=0;dropTarget=0;points=[[0,0.5],[1,0.5]];portConstraint=eastwest;top=0;left=0;right=0;bottom=0;" vertex="1" parent="Dfj8NLsdCSNwz5OeEImE-319">
          <mxGeometry y="90" width="180" height="30" as="geometry" />
        </mxCell>
        <mxCell id="Dfj8NLsdCSNwz5OeEImE-327" value="" style="shape=partialRectangle;connectable=0;fillColor=none;top=0;left=0;bottom=0;right=0;editable=1;overflow=hidden;whiteSpace=wrap;html=1;" vertex="1" parent="Dfj8NLsdCSNwz5OeEImE-326">
          <mxGeometry width="30" height="30" as="geometry">
            <mxRectangle width="30" height="30" as="alternateBounds" />
          </mxGeometry>
        </mxCell>
        <mxCell id="Dfj8NLsdCSNwz5OeEImE-328" value="aut_bio" style="shape=partialRectangle;connectable=0;fillColor=none;top=0;left=0;bottom=0;right=0;align=left;spacingLeft=6;overflow=hidden;whiteSpace=wrap;html=1;" vertex="1" parent="Dfj8NLsdCSNwz5OeEImE-326">
          <mxGeometry x="30" width="150" height="30" as="geometry">
            <mxRectangle width="150" height="30" as="alternateBounds" />
          </mxGeometry>
        </mxCell>
        <mxCell id="Dfj8NLsdCSNwz5OeEImE-329" value="" style="shape=tableRow;horizontal=0;startSize=0;swimlaneHead=0;swimlaneBody=0;fillColor=none;collapsible=0;dropTarget=0;points=[[0,0.5],[1,0.5]];portConstraint=eastwest;top=0;left=0;right=0;bottom=0;" vertex="1" parent="Dfj8NLsdCSNwz5OeEImE-319">
          <mxGeometry y="120" width="180" height="30" as="geometry" />
        </mxCell>
        <mxCell id="Dfj8NLsdCSNwz5OeEImE-330" value="" style="shape=partialRectangle;connectable=0;fillColor=none;top=0;left=0;bottom=0;right=0;editable=1;overflow=hidden;" vertex="1" parent="Dfj8NLsdCSNwz5OeEImE-329">
          <mxGeometry width="30" height="30" as="geometry">
            <mxRectangle width="30" height="30" as="alternateBounds" />
          </mxGeometry>
        </mxCell>
        <mxCell id="Dfj8NLsdCSNwz5OeEImE-331" value="aut_foto" style="shape=partialRectangle;connectable=0;fillColor=none;top=0;left=0;bottom=0;right=0;align=left;spacingLeft=6;overflow=hidden;" vertex="1" parent="Dfj8NLsdCSNwz5OeEImE-329">
          <mxGeometry x="30" width="150" height="30" as="geometry">
            <mxRectangle width="150" height="30" as="alternateBounds" />
          </mxGeometry>
        </mxCell>
        <mxCell id="Dfj8NLsdCSNwz5OeEImE-332" value="LIVRO_AUTORES" style="shape=table;startSize=30;container=1;collapsible=1;childLayout=tableLayout;fixedRows=1;rowLines=0;fontStyle=1;align=center;resizeLast=1;html=1;" vertex="1" parent="1">
          <mxGeometry x="557" y="517" width="180" height="90" as="geometry" />
        </mxCell>
        <mxCell id="Dfj8NLsdCSNwz5OeEImE-333" value="" style="shape=tableRow;horizontal=0;startSize=0;swimlaneHead=0;swimlaneBody=0;fillColor=none;collapsible=0;dropTarget=0;points=[[0,0.5],[1,0.5]];portConstraint=eastwest;top=0;left=0;right=0;bottom=1;" vertex="1" parent="Dfj8NLsdCSNwz5OeEImE-332">
          <mxGeometry y="30" width="180" height="30" as="geometry" />
        </mxCell>
        <mxCell id="Dfj8NLsdCSNwz5OeEImE-334" value="PK FK" style="shape=partialRectangle;connectable=0;fillColor=none;top=0;left=0;bottom=0;right=0;fontStyle=1;overflow=hidden;whiteSpace=wrap;html=1;" vertex="1" parent="Dfj8NLsdCSNwz5OeEImE-333">
          <mxGeometry width="60" height="30" as="geometry">
            <mxRectangle width="60" height="30" as="alternateBounds" />
          </mxGeometry>
        </mxCell>
        <mxCell id="Dfj8NLsdCSNwz5OeEImE-335" value="&lt;span style=&quot;&quot;&gt;livro_id&lt;/span&gt;" style="shape=partialRectangle;connectable=0;fillColor=none;top=0;left=0;bottom=0;right=0;align=left;spacingLeft=6;fontStyle=5;overflow=hidden;whiteSpace=wrap;html=1;" vertex="1" parent="Dfj8NLsdCSNwz5OeEImE-333">
          <mxGeometry x="60" width="120" height="30" as="geometry">
            <mxRectangle width="120" height="30" as="alternateBounds" />
          </mxGeometry>
        </mxCell>
        <mxCell id="Dfj8NLsdCSNwz5OeEImE-336" value="" style="shape=tableRow;horizontal=0;startSize=0;swimlaneHead=0;swimlaneBody=0;fillColor=none;collapsible=0;dropTarget=0;points=[[0,0.5],[1,0.5]];portConstraint=eastwest;top=0;left=0;right=0;bottom=1;" vertex="1" parent="Dfj8NLsdCSNwz5OeEImE-332">
          <mxGeometry y="60" width="180" height="30" as="geometry" />
        </mxCell>
        <mxCell id="Dfj8NLsdCSNwz5OeEImE-337" value="PK FK" style="shape=partialRectangle;connectable=0;fillColor=none;top=0;left=0;bottom=0;right=0;fontStyle=1;overflow=hidden;whiteSpace=wrap;html=1;" vertex="1" parent="Dfj8NLsdCSNwz5OeEImE-336">
          <mxGeometry width="60" height="30" as="geometry">
            <mxRectangle width="60" height="30" as="alternateBounds" />
          </mxGeometry>
        </mxCell>
        <mxCell id="Dfj8NLsdCSNwz5OeEImE-338" value="&lt;span style=&quot;&quot;&gt;aut_id&lt;/span&gt;" style="shape=partialRectangle;connectable=0;fillColor=none;top=0;left=0;bottom=0;right=0;align=left;spacingLeft=6;fontStyle=5;overflow=hidden;whiteSpace=wrap;html=1;" vertex="1" parent="Dfj8NLsdCSNwz5OeEImE-336">
          <mxGeometry x="60" width="120" height="30" as="geometry">
            <mxRectangle width="120" height="30" as="alternateBounds" />
          </mxGeometry>
        </mxCell>
        <mxCell id="Dfj8NLsdCSNwz5OeEImE-339" value="LIVROS" style="shape=table;startSize=30;container=1;collapsible=1;childLayout=tableLayout;fixedRows=1;rowLines=0;fontStyle=1;align=center;resizeLast=1;html=1;" vertex="1" parent="1">
          <mxGeometry x="30" y="420" width="180" height="270" as="geometry" />
        </mxCell>
        <mxCell id="Dfj8NLsdCSNwz5OeEImE-340" value="" style="shape=tableRow;horizontal=0;startSize=0;swimlaneHead=0;swimlaneBody=0;fillColor=none;collapsible=0;dropTarget=0;points=[[0,0.5],[1,0.5]];portConstraint=eastwest;top=0;left=0;right=0;bottom=1;" vertex="1" parent="Dfj8NLsdCSNwz5OeEImE-339">
          <mxGeometry y="30" width="180" height="30" as="geometry" />
        </mxCell>
        <mxCell id="Dfj8NLsdCSNwz5OeEImE-341" value="PK" style="shape=partialRectangle;connectable=0;fillColor=none;top=0;left=0;bottom=0;right=0;fontStyle=1;overflow=hidden;whiteSpace=wrap;html=1;" vertex="1" parent="Dfj8NLsdCSNwz5OeEImE-340">
          <mxGeometry width="30" height="30" as="geometry">
            <mxRectangle width="30" height="30" as="alternateBounds" />
          </mxGeometry>
        </mxCell>
        <mxCell id="Dfj8NLsdCSNwz5OeEImE-342" value="livro_id" style="shape=partialRectangle;connectable=0;fillColor=none;top=0;left=0;bottom=0;right=0;align=left;spacingLeft=6;fontStyle=5;overflow=hidden;whiteSpace=wrap;html=1;" vertex="1" parent="Dfj8NLsdCSNwz5OeEImE-340">
          <mxGeometry x="30" width="150" height="30" as="geometry">
            <mxRectangle width="150" height="30" as="alternateBounds" />
          </mxGeometry>
        </mxCell>
        <mxCell id="Dfj8NLsdCSNwz5OeEImE-343" value="" style="shape=tableRow;horizontal=0;startSize=0;swimlaneHead=0;swimlaneBody=0;fillColor=none;collapsible=0;dropTarget=0;points=[[0,0.5],[1,0.5]];portConstraint=eastwest;top=0;left=0;right=0;bottom=0;" vertex="1" parent="Dfj8NLsdCSNwz5OeEImE-339">
          <mxGeometry y="60" width="180" height="30" as="geometry" />
        </mxCell>
        <mxCell id="Dfj8NLsdCSNwz5OeEImE-344" value="" style="shape=partialRectangle;connectable=0;fillColor=none;top=0;left=0;bottom=0;right=0;editable=1;overflow=hidden;whiteSpace=wrap;html=1;" vertex="1" parent="Dfj8NLsdCSNwz5OeEImE-343">
          <mxGeometry width="30" height="30" as="geometry">
            <mxRectangle width="30" height="30" as="alternateBounds" />
          </mxGeometry>
        </mxCell>
        <mxCell id="Dfj8NLsdCSNwz5OeEImE-345" value="livro_titulo" style="shape=partialRectangle;connectable=0;fillColor=none;top=0;left=0;bottom=0;right=0;align=left;spacingLeft=6;overflow=hidden;whiteSpace=wrap;html=1;" vertex="1" parent="Dfj8NLsdCSNwz5OeEImE-343">
          <mxGeometry x="30" width="150" height="30" as="geometry">
            <mxRectangle width="150" height="30" as="alternateBounds" />
          </mxGeometry>
        </mxCell>
        <mxCell id="Dfj8NLsdCSNwz5OeEImE-346" value="" style="shape=tableRow;horizontal=0;startSize=0;swimlaneHead=0;swimlaneBody=0;fillColor=none;collapsible=0;dropTarget=0;points=[[0,0.5],[1,0.5]];portConstraint=eastwest;top=0;left=0;right=0;bottom=0;" vertex="1" parent="Dfj8NLsdCSNwz5OeEImE-339">
          <mxGeometry y="90" width="180" height="30" as="geometry" />
        </mxCell>
        <mxCell id="Dfj8NLsdCSNwz5OeEImE-347" value="" style="shape=partialRectangle;connectable=0;fillColor=none;top=0;left=0;bottom=0;right=0;editable=1;overflow=hidden;" vertex="1" parent="Dfj8NLsdCSNwz5OeEImE-346">
          <mxGeometry width="30" height="30" as="geometry">
            <mxRectangle width="30" height="30" as="alternateBounds" />
          </mxGeometry>
        </mxCell>
        <mxCell id="Dfj8NLsdCSNwz5OeEImE-348" value="livro_sinopse" style="shape=partialRectangle;connectable=0;fillColor=none;top=0;left=0;bottom=0;right=0;align=left;spacingLeft=6;overflow=hidden;" vertex="1" parent="Dfj8NLsdCSNwz5OeEImE-346">
          <mxGeometry x="30" width="150" height="30" as="geometry">
            <mxRectangle width="150" height="30" as="alternateBounds" />
          </mxGeometry>
        </mxCell>
        <mxCell id="Dfj8NLsdCSNwz5OeEImE-352" value="" style="shape=tableRow;horizontal=0;startSize=0;swimlaneHead=0;swimlaneBody=0;fillColor=none;collapsible=0;dropTarget=0;points=[[0,0.5],[1,0.5]];portConstraint=eastwest;top=0;left=0;right=0;bottom=0;" vertex="1" parent="Dfj8NLsdCSNwz5OeEImE-339">
          <mxGeometry y="120" width="180" height="30" as="geometry" />
        </mxCell>
        <mxCell id="Dfj8NLsdCSNwz5OeEImE-353" value="" style="shape=partialRectangle;connectable=0;fillColor=none;top=0;left=0;bottom=0;right=0;editable=1;overflow=hidden;" vertex="1" parent="Dfj8NLsdCSNwz5OeEImE-352">
          <mxGeometry width="30" height="30" as="geometry">
            <mxRectangle width="30" height="30" as="alternateBounds" />
          </mxGeometry>
        </mxCell>
        <mxCell id="Dfj8NLsdCSNwz5OeEImE-354" value="livro_editora" style="shape=partialRectangle;connectable=0;fillColor=none;top=0;left=0;bottom=0;right=0;align=left;spacingLeft=6;overflow=hidden;" vertex="1" parent="Dfj8NLsdCSNwz5OeEImE-352">
          <mxGeometry x="30" width="150" height="30" as="geometry">
            <mxRectangle width="150" height="30" as="alternateBounds" />
          </mxGeometry>
        </mxCell>
        <mxCell id="Dfj8NLsdCSNwz5OeEImE-355" value="" style="shape=tableRow;horizontal=0;startSize=0;swimlaneHead=0;swimlaneBody=0;fillColor=none;collapsible=0;dropTarget=0;points=[[0,0.5],[1,0.5]];portConstraint=eastwest;top=0;left=0;right=0;bottom=0;" vertex="1" parent="Dfj8NLsdCSNwz5OeEImE-339">
          <mxGeometry y="150" width="180" height="30" as="geometry" />
        </mxCell>
        <mxCell id="Dfj8NLsdCSNwz5OeEImE-356" value="" style="shape=partialRectangle;connectable=0;fillColor=none;top=0;left=0;bottom=0;right=0;editable=1;overflow=hidden;" vertex="1" parent="Dfj8NLsdCSNwz5OeEImE-355">
          <mxGeometry width="30" height="30" as="geometry">
            <mxRectangle width="30" height="30" as="alternateBounds" />
          </mxGeometry>
        </mxCell>
        <mxCell id="Dfj8NLsdCSNwz5OeEImE-357" value="livro_isbn" style="shape=partialRectangle;connectable=0;fillColor=none;top=0;left=0;bottom=0;right=0;align=left;spacingLeft=6;overflow=hidden;" vertex="1" parent="Dfj8NLsdCSNwz5OeEImE-355">
          <mxGeometry x="30" width="150" height="30" as="geometry">
            <mxRectangle width="150" height="30" as="alternateBounds" />
          </mxGeometry>
        </mxCell>
        <mxCell id="qsq8mV6GAj0yEigdNPfl-1" value="" style="shape=tableRow;horizontal=0;startSize=0;swimlaneHead=0;swimlaneBody=0;fillColor=none;collapsible=0;dropTarget=0;points=[[0,0.5],[1,0.5]];portConstraint=eastwest;top=0;left=0;right=0;bottom=0;" vertex="1" parent="Dfj8NLsdCSNwz5OeEImE-339">
          <mxGeometry y="180" width="180" height="30" as="geometry" />
        </mxCell>
        <mxCell id="qsq8mV6GAj0yEigdNPfl-2" value="" style="shape=partialRectangle;connectable=0;fillColor=none;top=0;left=0;bottom=0;right=0;editable=1;overflow=hidden;" vertex="1" parent="qsq8mV6GAj0yEigdNPfl-1">
          <mxGeometry width="30" height="30" as="geometry">
            <mxRectangle width="30" height="30" as="alternateBounds" />
          </mxGeometry>
        </mxCell>
        <mxCell id="qsq8mV6GAj0yEigdNPfl-3" value="livro_ano" style="shape=partialRectangle;connectable=0;fillColor=none;top=0;left=0;bottom=0;right=0;align=left;spacingLeft=6;overflow=hidden;" vertex="1" parent="qsq8mV6GAj0yEigdNPfl-1">
          <mxGeometry x="30" width="150" height="30" as="geometry">
            <mxRectangle width="150" height="30" as="alternateBounds" />
          </mxGeometry>
        </mxCell>
        <mxCell id="Dfj8NLsdCSNwz5OeEImE-358" value="" style="shape=tableRow;horizontal=0;startSize=0;swimlaneHead=0;swimlaneBody=0;fillColor=none;collapsible=0;dropTarget=0;points=[[0,0.5],[1,0.5]];portConstraint=eastwest;top=0;left=0;right=0;bottom=0;" vertex="1" parent="Dfj8NLsdCSNwz5OeEImE-339">
          <mxGeometry y="210" width="180" height="30" as="geometry" />
        </mxCell>
        <mxCell id="Dfj8NLsdCSNwz5OeEImE-359" value="" style="shape=partialRectangle;connectable=0;fillColor=none;top=0;left=0;bottom=0;right=0;editable=1;overflow=hidden;" vertex="1" parent="Dfj8NLsdCSNwz5OeEImE-358">
          <mxGeometry width="30" height="30" as="geometry">
            <mxRectangle width="30" height="30" as="alternateBounds" />
          </mxGeometry>
        </mxCell>
        <mxCell id="Dfj8NLsdCSNwz5OeEImE-360" value="livro_classidd" style="shape=partialRectangle;connectable=0;fillColor=none;top=0;left=0;bottom=0;right=0;align=left;spacingLeft=6;overflow=hidden;" vertex="1" parent="Dfj8NLsdCSNwz5OeEImE-358">
          <mxGeometry x="30" width="150" height="30" as="geometry">
            <mxRectangle width="150" height="30" as="alternateBounds" />
          </mxGeometry>
        </mxCell>
        <mxCell id="Dfj8NLsdCSNwz5OeEImE-361" value="" style="shape=tableRow;horizontal=0;startSize=0;swimlaneHead=0;swimlaneBody=0;fillColor=none;collapsible=0;dropTarget=0;points=[[0,0.5],[1,0.5]];portConstraint=eastwest;top=0;left=0;right=0;bottom=0;" vertex="1" parent="Dfj8NLsdCSNwz5OeEImE-339">
          <mxGeometry y="240" width="180" height="30" as="geometry" />
        </mxCell>
        <mxCell id="Dfj8NLsdCSNwz5OeEImE-362" value="" style="shape=partialRectangle;connectable=0;fillColor=none;top=0;left=0;bottom=0;right=0;editable=1;overflow=hidden;" vertex="1" parent="Dfj8NLsdCSNwz5OeEImE-361">
          <mxGeometry width="30" height="30" as="geometry">
            <mxRectangle width="30" height="30" as="alternateBounds" />
          </mxGeometry>
        </mxCell>
        <mxCell id="Dfj8NLsdCSNwz5OeEImE-363" value="livro_foto" style="shape=partialRectangle;connectable=0;fillColor=none;top=0;left=0;bottom=0;right=0;align=left;spacingLeft=6;overflow=hidden;" vertex="1" parent="Dfj8NLsdCSNwz5OeEImE-361">
          <mxGeometry x="30" width="150" height="30" as="geometry">
            <mxRectangle width="150" height="30" as="alternateBounds" />
          </mxGeometry>
        </mxCell>
        <mxCell id="Dfj8NLsdCSNwz5OeEImE-367" value="" style="endArrow=ERone;html=1;rounded=0;strokeWidth=2;endSize=12;startSize=12;startArrow=ERone;startFill=0;endFill=0;entryX=0;entryY=0.5;entryDx=0;entryDy=0;exitX=1;exitY=0.5;exitDx=0;exitDy=0;" edge="1" parent="1" source="Dfj8NLsdCSNwz5OeEImE-208" target="Dfj8NLsdCSNwz5OeEImE-233">
          <mxGeometry relative="1" as="geometry">
            <mxPoint x="124.09" y="-49" as="sourcePoint" />
            <mxPoint x="285.09" y="-20" as="targetPoint" />
          </mxGeometry>
        </mxCell>
        <mxCell id="Dfj8NLsdCSNwz5OeEImE-368" value="" style="endArrow=ERone;html=1;rounded=0;strokeWidth=2;endSize=12;startSize=12;startArrow=ERone;startFill=0;endFill=0;edgeStyle=elbowEdgeStyle;exitX=1;exitY=0.5;exitDx=0;exitDy=0;" edge="1" parent="1" source="Dfj8NLsdCSNwz5OeEImE-264" target="Dfj8NLsdCSNwz5OeEImE-208">
          <mxGeometry relative="1" as="geometry">
            <mxPoint x="-164.91" y="-20" as="sourcePoint" />
            <mxPoint x="-64.91" y="-20" as="targetPoint" />
          </mxGeometry>
        </mxCell>
        <mxCell id="Dfj8NLsdCSNwz5OeEImE-369" value="" style="endArrow=ERmany;html=1;rounded=0;strokeWidth=2;endSize=12;startSize=12;startArrow=ERone;startFill=0;endFill=0;exitX=1;exitY=0.5;exitDx=0;exitDy=0;entryX=0;entryY=0.5;entryDx=0;entryDy=0;edgeStyle=orthogonalEdgeStyle;" edge="1" parent="1" source="Dfj8NLsdCSNwz5OeEImE-340" target="Dfj8NLsdCSNwz5OeEImE-333">
          <mxGeometry relative="1" as="geometry">
            <mxPoint x="244" y="515" as="sourcePoint" />
            <mxPoint x="200" y="330" as="targetPoint" />
          </mxGeometry>
        </mxCell>
        <mxCell id="Dfj8NLsdCSNwz5OeEImE-370" value="" style="endArrow=ERmany;html=1;rounded=0;strokeWidth=2;endSize=12;startSize=12;startArrow=ERone;startFill=0;endFill=0;entryX=0;entryY=0.5;entryDx=0;entryDy=0;exitX=1;exitY=0.5;exitDx=0;exitDy=0;edgeStyle=elbowEdgeStyle;" edge="1" parent="1" source="Dfj8NLsdCSNwz5OeEImE-320" target="Dfj8NLsdCSNwz5OeEImE-336">
          <mxGeometry relative="1" as="geometry">
            <mxPoint x="-250" y="574" as="sourcePoint" />
            <mxPoint x="-90" y="574" as="targetPoint" />
            <Array as="points" />
          </mxGeometry>
        </mxCell>
        <mxCell id="Dfj8NLsdCSNwz5OeEImE-371" value="" style="endArrow=ERmany;html=1;rounded=0;strokeWidth=2;endSize=12;startSize=12;startArrow=ERone;startFill=0;endFill=0;exitX=-0.006;exitY=0.758;exitDx=0;exitDy=0;edgeStyle=orthogonalEdgeStyle;exitPerimeter=0;entryX=0;entryY=0.5;entryDx=0;entryDy=0;" edge="1" parent="1" source="Dfj8NLsdCSNwz5OeEImE-264" target="Dfj8NLsdCSNwz5OeEImE-292">
          <mxGeometry relative="1" as="geometry">
            <mxPoint x="-412" y="32.959999999999994" as="sourcePoint" />
            <mxPoint x="-644" y="393" as="targetPoint" />
            <Array as="points">
              <mxPoint x="-443" y="-41" />
              <mxPoint x="-443" y="348" />
            </Array>
          </mxGeometry>
        </mxCell>
        <mxCell id="Dfj8NLsdCSNwz5OeEImE-372" value="LIVRARIAS_LIVROS" style="shape=table;startSize=30;container=1;collapsible=1;childLayout=tableLayout;fixedRows=1;rowLines=0;fontStyle=1;align=center;resizeLast=1;html=1;" vertex="1" parent="1">
          <mxGeometry x="560" y="160" width="180" height="330" as="geometry" />
        </mxCell>
        <mxCell id="Dfj8NLsdCSNwz5OeEImE-373" value="" style="shape=tableRow;horizontal=0;startSize=0;swimlaneHead=0;swimlaneBody=0;fillColor=none;collapsible=0;dropTarget=0;points=[[0,0.5],[1,0.5]];portConstraint=eastwest;top=0;left=0;right=0;bottom=1;" vertex="1" parent="Dfj8NLsdCSNwz5OeEImE-372">
          <mxGeometry y="30" width="180" height="30" as="geometry" />
        </mxCell>
        <mxCell id="Dfj8NLsdCSNwz5OeEImE-374" value="PK" style="shape=partialRectangle;connectable=0;fillColor=none;top=0;left=0;bottom=0;right=0;fontStyle=1;overflow=hidden;whiteSpace=wrap;html=1;" vertex="1" parent="Dfj8NLsdCSNwz5OeEImE-373">
          <mxGeometry width="30" height="30" as="geometry">
            <mxRectangle width="30" height="30" as="alternateBounds" />
          </mxGeometry>
        </mxCell>
        <mxCell id="Dfj8NLsdCSNwz5OeEImE-375" value="liv_livro_id" style="shape=partialRectangle;connectable=0;fillColor=none;top=0;left=0;bottom=0;right=0;align=left;spacingLeft=6;fontStyle=5;overflow=hidden;whiteSpace=wrap;html=1;" vertex="1" parent="Dfj8NLsdCSNwz5OeEImE-373">
          <mxGeometry x="30" width="150" height="30" as="geometry">
            <mxRectangle width="150" height="30" as="alternateBounds" />
          </mxGeometry>
        </mxCell>
        <mxCell id="Dfj8NLsdCSNwz5OeEImE-376" value="" style="shape=tableRow;horizontal=0;startSize=0;swimlaneHead=0;swimlaneBody=0;fillColor=none;collapsible=0;dropTarget=0;points=[[0,0.5],[1,0.5]];portConstraint=eastwest;top=0;left=0;right=0;bottom=0;" vertex="1" parent="Dfj8NLsdCSNwz5OeEImE-372">
          <mxGeometry y="60" width="180" height="30" as="geometry" />
        </mxCell>
        <mxCell id="Dfj8NLsdCSNwz5OeEImE-377" value="&lt;b&gt;FK&lt;/b&gt;" style="shape=partialRectangle;connectable=0;fillColor=none;top=0;left=0;bottom=0;right=0;editable=1;overflow=hidden;whiteSpace=wrap;html=1;" vertex="1" parent="Dfj8NLsdCSNwz5OeEImE-376">
          <mxGeometry width="30" height="30" as="geometry">
            <mxRectangle width="30" height="30" as="alternateBounds" />
          </mxGeometry>
        </mxCell>
        <mxCell id="Dfj8NLsdCSNwz5OeEImE-378" value="liv_id" style="shape=partialRectangle;connectable=0;fillColor=none;top=0;left=0;bottom=0;right=0;align=left;spacingLeft=6;overflow=hidden;whiteSpace=wrap;html=1;" vertex="1" parent="Dfj8NLsdCSNwz5OeEImE-376">
          <mxGeometry x="30" width="150" height="30" as="geometry">
            <mxRectangle width="150" height="30" as="alternateBounds" />
          </mxGeometry>
        </mxCell>
        <mxCell id="Dfj8NLsdCSNwz5OeEImE-379" value="" style="shape=tableRow;horizontal=0;startSize=0;swimlaneHead=0;swimlaneBody=0;fillColor=none;collapsible=0;dropTarget=0;points=[[0,0.5],[1,0.5]];portConstraint=eastwest;top=0;left=0;right=0;bottom=0;" vertex="1" parent="Dfj8NLsdCSNwz5OeEImE-372">
          <mxGeometry y="90" width="180" height="30" as="geometry" />
        </mxCell>
        <mxCell id="Dfj8NLsdCSNwz5OeEImE-380" value="FK" style="shape=partialRectangle;connectable=0;fillColor=none;top=0;left=0;bottom=0;right=0;editable=1;overflow=hidden;whiteSpace=wrap;html=1;" vertex="1" parent="Dfj8NLsdCSNwz5OeEImE-379">
          <mxGeometry width="30" height="30" as="geometry">
            <mxRectangle width="30" height="30" as="alternateBounds" />
          </mxGeometry>
        </mxCell>
        <mxCell id="Dfj8NLsdCSNwz5OeEImE-381" value="livro_id" style="shape=partialRectangle;connectable=0;fillColor=none;top=0;left=0;bottom=0;right=0;align=left;spacingLeft=6;overflow=hidden;whiteSpace=wrap;html=1;" vertex="1" parent="Dfj8NLsdCSNwz5OeEImE-379">
          <mxGeometry x="30" width="150" height="30" as="geometry">
            <mxRectangle width="150" height="30" as="alternateBounds" />
          </mxGeometry>
        </mxCell>
        <mxCell id="qsq8mV6GAj0yEigdNPfl-10" value="" style="shape=tableRow;horizontal=0;startSize=0;swimlaneHead=0;swimlaneBody=0;fillColor=none;collapsible=0;dropTarget=0;points=[[0,0.5],[1,0.5]];portConstraint=eastwest;top=0;left=0;right=0;bottom=0;" vertex="1" parent="Dfj8NLsdCSNwz5OeEImE-372">
          <mxGeometry y="120" width="180" height="30" as="geometry" />
        </mxCell>
        <mxCell id="qsq8mV6GAj0yEigdNPfl-11" value="" style="shape=partialRectangle;connectable=0;fillColor=none;top=0;left=0;bottom=0;right=0;editable=1;overflow=hidden;whiteSpace=wrap;html=1;" vertex="1" parent="qsq8mV6GAj0yEigdNPfl-10">
          <mxGeometry width="30" height="30" as="geometry">
            <mxRectangle width="30" height="30" as="alternateBounds" />
          </mxGeometry>
        </mxCell>
        <mxCell id="qsq8mV6GAj0yEigdNPfl-12" value="&lt;span style=&quot;text-wrap-mode: nowrap;&quot;&gt;liv_&lt;/span&gt;livro_idioma" style="shape=partialRectangle;connectable=0;fillColor=none;top=0;left=0;bottom=0;right=0;align=left;spacingLeft=6;overflow=hidden;whiteSpace=wrap;html=1;" vertex="1" parent="qsq8mV6GAj0yEigdNPfl-10">
          <mxGeometry x="30" width="150" height="30" as="geometry">
            <mxRectangle width="150" height="30" as="alternateBounds" />
          </mxGeometry>
        </mxCell>
        <mxCell id="qsq8mV6GAj0yEigdNPfl-13" value="" style="shape=tableRow;horizontal=0;startSize=0;swimlaneHead=0;swimlaneBody=0;fillColor=none;collapsible=0;dropTarget=0;points=[[0,0.5],[1,0.5]];portConstraint=eastwest;top=0;left=0;right=0;bottom=0;" vertex="1" parent="Dfj8NLsdCSNwz5OeEImE-372">
          <mxGeometry y="150" width="180" height="30" as="geometry" />
        </mxCell>
        <mxCell id="qsq8mV6GAj0yEigdNPfl-14" value="" style="shape=partialRectangle;connectable=0;fillColor=none;top=0;left=0;bottom=0;right=0;editable=1;overflow=hidden;whiteSpace=wrap;html=1;" vertex="1" parent="qsq8mV6GAj0yEigdNPfl-13">
          <mxGeometry width="30" height="30" as="geometry">
            <mxRectangle width="30" height="30" as="alternateBounds" />
          </mxGeometry>
        </mxCell>
        <mxCell id="qsq8mV6GAj0yEigdNPfl-15" value="&lt;span style=&quot;text-wrap-mode: nowrap;&quot;&gt;liv_&lt;/span&gt;livro_pag" style="shape=partialRectangle;connectable=0;fillColor=none;top=0;left=0;bottom=0;right=0;align=left;spacingLeft=6;overflow=hidden;whiteSpace=wrap;html=1;" vertex="1" parent="qsq8mV6GAj0yEigdNPfl-13">
          <mxGeometry x="30" width="150" height="30" as="geometry">
            <mxRectangle width="150" height="30" as="alternateBounds" />
          </mxGeometry>
        </mxCell>
        <mxCell id="qsq8mV6GAj0yEigdNPfl-16" value="" style="shape=tableRow;horizontal=0;startSize=0;swimlaneHead=0;swimlaneBody=0;fillColor=none;collapsible=0;dropTarget=0;points=[[0,0.5],[1,0.5]];portConstraint=eastwest;top=0;left=0;right=0;bottom=0;" vertex="1" parent="Dfj8NLsdCSNwz5OeEImE-372">
          <mxGeometry y="180" width="180" height="30" as="geometry" />
        </mxCell>
        <mxCell id="qsq8mV6GAj0yEigdNPfl-17" value="" style="shape=partialRectangle;connectable=0;fillColor=none;top=0;left=0;bottom=0;right=0;editable=1;overflow=hidden;whiteSpace=wrap;html=1;" vertex="1" parent="qsq8mV6GAj0yEigdNPfl-16">
          <mxGeometry width="30" height="30" as="geometry">
            <mxRectangle width="30" height="30" as="alternateBounds" />
          </mxGeometry>
        </mxCell>
        <mxCell id="qsq8mV6GAj0yEigdNPfl-18" value="&lt;span style=&quot;text-wrap-mode: nowrap;&quot;&gt;liv_&lt;/span&gt;livro_tipo" style="shape=partialRectangle;connectable=0;fillColor=none;top=0;left=0;bottom=0;right=0;align=left;spacingLeft=6;overflow=hidden;whiteSpace=wrap;html=1;" vertex="1" parent="qsq8mV6GAj0yEigdNPfl-16">
          <mxGeometry x="30" width="150" height="30" as="geometry">
            <mxRectangle width="150" height="30" as="alternateBounds" />
          </mxGeometry>
        </mxCell>
        <mxCell id="Dfj8NLsdCSNwz5OeEImE-382" value="" style="shape=tableRow;horizontal=0;startSize=0;swimlaneHead=0;swimlaneBody=0;fillColor=none;collapsible=0;dropTarget=0;points=[[0,0.5],[1,0.5]];portConstraint=eastwest;top=0;left=0;right=0;bottom=0;" vertex="1" parent="Dfj8NLsdCSNwz5OeEImE-372">
          <mxGeometry y="210" width="180" height="30" as="geometry" />
        </mxCell>
        <mxCell id="Dfj8NLsdCSNwz5OeEImE-383" value="" style="shape=partialRectangle;connectable=0;fillColor=none;top=0;left=0;bottom=0;right=0;editable=1;overflow=hidden;" vertex="1" parent="Dfj8NLsdCSNwz5OeEImE-382">
          <mxGeometry width="30" height="30" as="geometry">
            <mxRectangle width="30" height="30" as="alternateBounds" />
          </mxGeometry>
        </mxCell>
        <mxCell id="Dfj8NLsdCSNwz5OeEImE-384" value="liv_livro_preco" style="shape=partialRectangle;connectable=0;fillColor=none;top=0;left=0;bottom=0;right=0;align=left;spacingLeft=6;overflow=hidden;" vertex="1" parent="Dfj8NLsdCSNwz5OeEImE-382">
          <mxGeometry x="30" width="150" height="30" as="geometry">
            <mxRectangle width="150" height="30" as="alternateBounds" />
          </mxGeometry>
        </mxCell>
        <mxCell id="Dfj8NLsdCSNwz5OeEImE-385" value="" style="shape=tableRow;horizontal=0;startSize=0;swimlaneHead=0;swimlaneBody=0;fillColor=none;collapsible=0;dropTarget=0;points=[[0,0.5],[1,0.5]];portConstraint=eastwest;top=0;left=0;right=0;bottom=0;" vertex="1" parent="Dfj8NLsdCSNwz5OeEImE-372">
          <mxGeometry y="240" width="180" height="30" as="geometry" />
        </mxCell>
        <mxCell id="Dfj8NLsdCSNwz5OeEImE-386" value="" style="shape=partialRectangle;connectable=0;fillColor=none;top=0;left=0;bottom=0;right=0;editable=1;overflow=hidden;" vertex="1" parent="Dfj8NLsdCSNwz5OeEImE-385">
          <mxGeometry width="30" height="30" as="geometry">
            <mxRectangle width="30" height="30" as="alternateBounds" />
          </mxGeometry>
        </mxCell>
        <mxCell id="Dfj8NLsdCSNwz5OeEImE-387" value="liv_livro_obsadicionais" style="shape=partialRectangle;connectable=0;fillColor=none;top=0;left=0;bottom=0;right=0;align=left;spacingLeft=6;overflow=hidden;" vertex="1" parent="Dfj8NLsdCSNwz5OeEImE-385">
          <mxGeometry x="30" width="150" height="30" as="geometry">
            <mxRectangle width="150" height="30" as="alternateBounds" />
          </mxGeometry>
        </mxCell>
        <mxCell id="Dfj8NLsdCSNwz5OeEImE-388" value="" style="shape=tableRow;horizontal=0;startSize=0;swimlaneHead=0;swimlaneBody=0;fillColor=none;collapsible=0;dropTarget=0;points=[[0,0.5],[1,0.5]];portConstraint=eastwest;top=0;left=0;right=0;bottom=0;" vertex="1" parent="Dfj8NLsdCSNwz5OeEImE-372">
          <mxGeometry y="270" width="180" height="30" as="geometry" />
        </mxCell>
        <mxCell id="Dfj8NLsdCSNwz5OeEImE-389" value="" style="shape=partialRectangle;connectable=0;fillColor=none;top=0;left=0;bottom=0;right=0;editable=1;overflow=hidden;" vertex="1" parent="Dfj8NLsdCSNwz5OeEImE-388">
          <mxGeometry width="30" height="30" as="geometry">
            <mxRectangle width="30" height="30" as="alternateBounds" />
          </mxGeometry>
        </mxCell>
        <mxCell id="Dfj8NLsdCSNwz5OeEImE-390" value="liv_livro_status" style="shape=partialRectangle;connectable=0;fillColor=none;top=0;left=0;bottom=0;right=0;align=left;spacingLeft=6;overflow=hidden;" vertex="1" parent="Dfj8NLsdCSNwz5OeEImE-388">
          <mxGeometry x="30" width="150" height="30" as="geometry">
            <mxRectangle width="150" height="30" as="alternateBounds" />
          </mxGeometry>
        </mxCell>
        <mxCell id="Dfj8NLsdCSNwz5OeEImE-391" value="" style="shape=tableRow;horizontal=0;startSize=0;swimlaneHead=0;swimlaneBody=0;fillColor=none;collapsible=0;dropTarget=0;points=[[0,0.5],[1,0.5]];portConstraint=eastwest;top=0;left=0;right=0;bottom=0;" vertex="1" parent="Dfj8NLsdCSNwz5OeEImE-372">
          <mxGeometry y="300" width="180" height="30" as="geometry" />
        </mxCell>
        <mxCell id="Dfj8NLsdCSNwz5OeEImE-392" value="" style="shape=partialRectangle;connectable=0;fillColor=none;top=0;left=0;bottom=0;right=0;editable=1;overflow=hidden;" vertex="1" parent="Dfj8NLsdCSNwz5OeEImE-391">
          <mxGeometry width="30" height="30" as="geometry">
            <mxRectangle width="30" height="30" as="alternateBounds" />
          </mxGeometry>
        </mxCell>
        <mxCell id="Dfj8NLsdCSNwz5OeEImE-393" value="liv_livro_dtpublicacao" style="shape=partialRectangle;connectable=0;fillColor=none;top=0;left=0;bottom=0;right=0;align=left;spacingLeft=6;overflow=hidden;" vertex="1" parent="Dfj8NLsdCSNwz5OeEImE-391">
          <mxGeometry x="30" width="150" height="30" as="geometry">
            <mxRectangle width="150" height="30" as="alternateBounds" />
          </mxGeometry>
        </mxCell>
        <mxCell id="Dfj8NLsdCSNwz5OeEImE-394" value="" style="endArrow=ERmany;html=1;rounded=0;strokeWidth=2;endSize=12;startSize=12;startArrow=ERone;startFill=0;endFill=0;entryX=0;entryY=0.5;entryDx=0;entryDy=0;exitX=1;exitY=0.5;exitDx=0;exitDy=0;edgeStyle=elbowEdgeStyle;" edge="1" parent="1" source="Dfj8NLsdCSNwz5OeEImE-340" target="Dfj8NLsdCSNwz5OeEImE-379">
          <mxGeometry relative="1" as="geometry">
            <mxPoint x="414" y="380" as="sourcePoint" />
            <mxPoint x="574" y="380" as="targetPoint" />
            <Array as="points">
              <mxPoint x="470" y="370" />
            </Array>
          </mxGeometry>
        </mxCell>
        <mxCell id="Dfj8NLsdCSNwz5OeEImE-395" value="" style="endArrow=ERmany;html=1;rounded=0;strokeWidth=2;endSize=12;startSize=12;startArrow=ERone;startFill=0;endFill=0;exitX=1;exitY=0.5;exitDx=0;exitDy=0;entryX=0;entryY=0.5;entryDx=0;entryDy=0;edgeStyle=elbowEdgeStyle;" edge="1" parent="1" source="Dfj8NLsdCSNwz5OeEImE-233" target="Dfj8NLsdCSNwz5OeEImE-376">
          <mxGeometry relative="1" as="geometry">
            <mxPoint x="480" y="90" as="sourcePoint" />
            <mxPoint x="640" y="90" as="targetPoint" />
          </mxGeometry>
        </mxCell>
        <mxCell id="Dfj8NLsdCSNwz5OeEImE-396" value="" style="endArrow=ERmany;html=1;rounded=0;strokeWidth=2;endSize=12;startSize=12;startArrow=ERone;startFill=0;endFill=0;exitX=0;exitY=0.5;exitDx=0;exitDy=0;entryX=1;entryY=0.5;entryDx=0;entryDy=0;edgeStyle=orthogonalEdgeStyle;" edge="1" parent="1" source="Dfj8NLsdCSNwz5OeEImE-340" target="Dfj8NLsdCSNwz5OeEImE-295">
          <mxGeometry relative="1" as="geometry">
            <mxPoint x="-250" y="440" as="sourcePoint" />
            <mxPoint y="575" as="targetPoint" />
          </mxGeometry>
        </mxCell>
        <mxCell id="Dfj8NLsdCSNwz5OeEImE-397" value="LIVRO_GENEROS" style="shape=table;startSize=30;container=1;collapsible=1;childLayout=tableLayout;fixedRows=1;rowLines=0;fontStyle=1;align=center;resizeLast=1;html=1;whiteSpace=wrap;" vertex="1" parent="1">
          <mxGeometry x="-211.09" y="730" width="180" height="90" as="geometry" />
        </mxCell>
        <mxCell id="Dfj8NLsdCSNwz5OeEImE-398" value="" style="shape=tableRow;horizontal=0;startSize=0;swimlaneHead=0;swimlaneBody=0;fillColor=none;collapsible=0;dropTarget=0;points=[[0,0.5],[1,0.5]];portConstraint=eastwest;top=0;left=0;right=0;bottom=0;html=1;" vertex="1" parent="Dfj8NLsdCSNwz5OeEImE-397">
          <mxGeometry y="30" width="180" height="30" as="geometry" />
        </mxCell>
        <mxCell id="Dfj8NLsdCSNwz5OeEImE-399" value="PK,FK" style="shape=partialRectangle;connectable=0;fillColor=none;top=0;left=0;bottom=0;right=0;fontStyle=1;overflow=hidden;html=1;whiteSpace=wrap;" vertex="1" parent="Dfj8NLsdCSNwz5OeEImE-398">
          <mxGeometry width="60" height="30" as="geometry">
            <mxRectangle width="60" height="30" as="alternateBounds" />
          </mxGeometry>
        </mxCell>
        <mxCell id="Dfj8NLsdCSNwz5OeEImE-400" value="livro_id" style="shape=partialRectangle;connectable=0;fillColor=none;top=0;left=0;bottom=0;right=0;align=left;spacingLeft=6;fontStyle=5;overflow=hidden;html=1;whiteSpace=wrap;" vertex="1" parent="Dfj8NLsdCSNwz5OeEImE-398">
          <mxGeometry x="60" width="120" height="30" as="geometry">
            <mxRectangle width="120" height="30" as="alternateBounds" />
          </mxGeometry>
        </mxCell>
        <mxCell id="Dfj8NLsdCSNwz5OeEImE-401" value="" style="shape=tableRow;horizontal=0;startSize=0;swimlaneHead=0;swimlaneBody=0;fillColor=none;collapsible=0;dropTarget=0;points=[[0,0.5],[1,0.5]];portConstraint=eastwest;top=0;left=0;right=0;bottom=1;html=1;" vertex="1" parent="Dfj8NLsdCSNwz5OeEImE-397">
          <mxGeometry y="60" width="180" height="30" as="geometry" />
        </mxCell>
        <mxCell id="Dfj8NLsdCSNwz5OeEImE-402" value="PK,FK" style="shape=partialRectangle;connectable=0;fillColor=none;top=0;left=0;bottom=0;right=0;fontStyle=1;overflow=hidden;html=1;whiteSpace=wrap;" vertex="1" parent="Dfj8NLsdCSNwz5OeEImE-401">
          <mxGeometry width="60" height="30" as="geometry">
            <mxRectangle width="60" height="30" as="alternateBounds" />
          </mxGeometry>
        </mxCell>
        <mxCell id="Dfj8NLsdCSNwz5OeEImE-403" value="gen_id" style="shape=partialRectangle;connectable=0;fillColor=none;top=0;left=0;bottom=0;right=0;align=left;spacingLeft=6;fontStyle=5;overflow=hidden;html=1;whiteSpace=wrap;" vertex="1" parent="Dfj8NLsdCSNwz5OeEImE-401">
          <mxGeometry x="60" width="120" height="30" as="geometry">
            <mxRectangle width="120" height="30" as="alternateBounds" />
          </mxGeometry>
        </mxCell>
        <mxCell id="Dfj8NLsdCSNwz5OeEImE-404" value="GENEROS" style="shape=table;startSize=30;container=1;collapsible=1;childLayout=tableLayout;fixedRows=1;rowLines=0;fontStyle=1;align=center;resizeLast=1;html=1;" vertex="1" parent="1">
          <mxGeometry x="-500" y="730" width="180" height="120" as="geometry" />
        </mxCell>
        <mxCell id="Dfj8NLsdCSNwz5OeEImE-405" value="" style="shape=tableRow;horizontal=0;startSize=0;swimlaneHead=0;swimlaneBody=0;fillColor=none;collapsible=0;dropTarget=0;points=[[0,0.5],[1,0.5]];portConstraint=eastwest;top=0;left=0;right=0;bottom=1;" vertex="1" parent="Dfj8NLsdCSNwz5OeEImE-404">
          <mxGeometry y="30" width="180" height="30" as="geometry" />
        </mxCell>
        <mxCell id="Dfj8NLsdCSNwz5OeEImE-406" value="PK" style="shape=partialRectangle;connectable=0;fillColor=none;top=0;left=0;bottom=0;right=0;fontStyle=1;overflow=hidden;whiteSpace=wrap;html=1;" vertex="1" parent="Dfj8NLsdCSNwz5OeEImE-405">
          <mxGeometry width="30" height="30" as="geometry">
            <mxRectangle width="30" height="30" as="alternateBounds" />
          </mxGeometry>
        </mxCell>
        <mxCell id="Dfj8NLsdCSNwz5OeEImE-407" value="gen_id" style="shape=partialRectangle;connectable=0;fillColor=none;top=0;left=0;bottom=0;right=0;align=left;spacingLeft=6;fontStyle=5;overflow=hidden;whiteSpace=wrap;html=1;" vertex="1" parent="Dfj8NLsdCSNwz5OeEImE-405">
          <mxGeometry x="30" width="150" height="30" as="geometry">
            <mxRectangle width="150" height="30" as="alternateBounds" />
          </mxGeometry>
        </mxCell>
        <mxCell id="Dfj8NLsdCSNwz5OeEImE-408" value="" style="shape=tableRow;horizontal=0;startSize=0;swimlaneHead=0;swimlaneBody=0;fillColor=none;collapsible=0;dropTarget=0;points=[[0,0.5],[1,0.5]];portConstraint=eastwest;top=0;left=0;right=0;bottom=0;" vertex="1" parent="Dfj8NLsdCSNwz5OeEImE-404">
          <mxGeometry y="60" width="180" height="30" as="geometry" />
        </mxCell>
        <mxCell id="Dfj8NLsdCSNwz5OeEImE-409" value="" style="shape=partialRectangle;connectable=0;fillColor=none;top=0;left=0;bottom=0;right=0;editable=1;overflow=hidden;whiteSpace=wrap;html=1;" vertex="1" parent="Dfj8NLsdCSNwz5OeEImE-408">
          <mxGeometry width="30" height="30" as="geometry">
            <mxRectangle width="30" height="30" as="alternateBounds" />
          </mxGeometry>
        </mxCell>
        <mxCell id="Dfj8NLsdCSNwz5OeEImE-410" value="gen_nome" style="shape=partialRectangle;connectable=0;fillColor=none;top=0;left=0;bottom=0;right=0;align=left;spacingLeft=6;overflow=hidden;whiteSpace=wrap;html=1;" vertex="1" parent="Dfj8NLsdCSNwz5OeEImE-408">
          <mxGeometry x="30" width="150" height="30" as="geometry">
            <mxRectangle width="150" height="30" as="alternateBounds" />
          </mxGeometry>
        </mxCell>
        <mxCell id="Dfj8NLsdCSNwz5OeEImE-411" value="" style="shape=tableRow;horizontal=0;startSize=0;swimlaneHead=0;swimlaneBody=0;fillColor=none;collapsible=0;dropTarget=0;points=[[0,0.5],[1,0.5]];portConstraint=eastwest;top=0;left=0;right=0;bottom=0;" vertex="1" parent="Dfj8NLsdCSNwz5OeEImE-404">
          <mxGeometry y="90" width="180" height="30" as="geometry" />
        </mxCell>
        <mxCell id="Dfj8NLsdCSNwz5OeEImE-412" value="" style="shape=partialRectangle;connectable=0;fillColor=none;top=0;left=0;bottom=0;right=0;editable=1;overflow=hidden;whiteSpace=wrap;html=1;" vertex="1" parent="Dfj8NLsdCSNwz5OeEImE-411">
          <mxGeometry width="30" height="30" as="geometry">
            <mxRectangle width="30" height="30" as="alternateBounds" />
          </mxGeometry>
        </mxCell>
        <mxCell id="Dfj8NLsdCSNwz5OeEImE-413" value="gen_icone" style="shape=partialRectangle;connectable=0;fillColor=none;top=0;left=0;bottom=0;right=0;align=left;spacingLeft=6;overflow=hidden;whiteSpace=wrap;html=1;" vertex="1" parent="Dfj8NLsdCSNwz5OeEImE-411">
          <mxGeometry x="30" width="150" height="30" as="geometry">
            <mxRectangle width="150" height="30" as="alternateBounds" />
          </mxGeometry>
        </mxCell>
        <mxCell id="Dfj8NLsdCSNwz5OeEImE-414" value="" style="endArrow=ERmany;html=1;rounded=0;strokeWidth=2;endSize=12;startSize=12;startArrow=ERone;startFill=0;endFill=0;exitX=1;exitY=0.5;exitDx=0;exitDy=0;entryX=0;entryY=0.5;entryDx=0;entryDy=0;edgeStyle=orthogonalEdgeStyle;" edge="1" parent="1" source="Dfj8NLsdCSNwz5OeEImE-405" target="Dfj8NLsdCSNwz5OeEImE-401">
          <mxGeometry relative="1" as="geometry">
            <mxPoint x="-471" y="596" as="sourcePoint" />
            <mxPoint x="-701" y="596" as="targetPoint" />
          </mxGeometry>
        </mxCell>
        <mxCell id="Dfj8NLsdCSNwz5OeEImE-415" value="" style="endArrow=ERmany;html=1;rounded=0;strokeWidth=2;endSize=12;startSize=12;startArrow=ERone;startFill=0;endFill=0;exitX=0;exitY=0.5;exitDx=0;exitDy=0;entryX=1;entryY=0.5;entryDx=0;entryDy=0;edgeStyle=orthogonalEdgeStyle;" edge="1" parent="1" source="Dfj8NLsdCSNwz5OeEImE-340" target="Dfj8NLsdCSNwz5OeEImE-398">
          <mxGeometry relative="1" as="geometry">
            <mxPoint x="-300" y="695" as="sourcePoint" />
            <mxPoint x="-200" y="725" as="targetPoint" />
          </mxGeometry>
        </mxCell>
        <mxCell id="tPnun-muu2tYVsJTyNDv-7" value="TITULO" style="shape=table;startSize=30;container=1;collapsible=1;childLayout=tableLayout;fixedRows=1;rowLines=0;fontStyle=1;align=center;resizeLast=1;html=1;" vertex="1" parent="1">
          <mxGeometry x="-31.089999999999968" y="208" width="180" height="180" as="geometry" />
        </mxCell>
        <mxCell id="tPnun-muu2tYVsJTyNDv-8" value="" style="shape=tableRow;horizontal=0;startSize=0;swimlaneHead=0;swimlaneBody=0;fillColor=none;collapsible=0;dropTarget=0;points=[[0,0.5],[1,0.5]];portConstraint=eastwest;top=0;left=0;right=0;bottom=1;" vertex="1" parent="tPnun-muu2tYVsJTyNDv-7">
          <mxGeometry y="30" width="180" height="30" as="geometry" />
        </mxCell>
        <mxCell id="tPnun-muu2tYVsJTyNDv-9" value="PK" style="shape=partialRectangle;connectable=0;fillColor=none;top=0;left=0;bottom=0;right=0;fontStyle=1;overflow=hidden;whiteSpace=wrap;html=1;" vertex="1" parent="tPnun-muu2tYVsJTyNDv-8">
          <mxGeometry width="50.090000000000146" height="30" as="geometry">
            <mxRectangle width="50.090000000000146" height="30" as="alternateBounds" />
          </mxGeometry>
        </mxCell>
        <mxCell id="tPnun-muu2tYVsJTyNDv-10" value="tit_id" style="shape=partialRectangle;connectable=0;fillColor=none;top=0;left=0;bottom=0;right=0;align=left;spacingLeft=6;fontStyle=5;overflow=hidden;whiteSpace=wrap;html=1;" vertex="1" parent="tPnun-muu2tYVsJTyNDv-8">
          <mxGeometry x="50.090000000000146" width="129.90999999999985" height="30" as="geometry">
            <mxRectangle width="129.90999999999985" height="30" as="alternateBounds" />
          </mxGeometry>
        </mxCell>
        <mxCell id="tPnun-muu2tYVsJTyNDv-11" value="" style="shape=tableRow;horizontal=0;startSize=0;swimlaneHead=0;swimlaneBody=0;fillColor=none;collapsible=0;dropTarget=0;points=[[0,0.5],[1,0.5]];portConstraint=eastwest;top=0;left=0;right=0;bottom=0;" vertex="1" parent="tPnun-muu2tYVsJTyNDv-7">
          <mxGeometry y="60" width="180" height="30" as="geometry" />
        </mxCell>
        <mxCell id="tPnun-muu2tYVsJTyNDv-12" value="" style="shape=partialRectangle;connectable=0;fillColor=none;top=0;left=0;bottom=0;right=0;editable=1;overflow=hidden;whiteSpace=wrap;html=1;" vertex="1" parent="tPnun-muu2tYVsJTyNDv-11">
          <mxGeometry width="50.090000000000146" height="30" as="geometry">
            <mxRectangle width="50.090000000000146" height="30" as="alternateBounds" />
          </mxGeometry>
        </mxCell>
        <mxCell id="tPnun-muu2tYVsJTyNDv-13" value="tit_nome" style="shape=partialRectangle;connectable=0;fillColor=none;top=0;left=0;bottom=0;right=0;align=left;spacingLeft=6;overflow=hidden;whiteSpace=wrap;html=1;" vertex="1" parent="tPnun-muu2tYVsJTyNDv-11">
          <mxGeometry x="50.090000000000146" width="129.90999999999985" height="30" as="geometry">
            <mxRectangle width="129.90999999999985" height="30" as="alternateBounds" />
          </mxGeometry>
        </mxCell>
        <mxCell id="tPnun-muu2tYVsJTyNDv-14" value="" style="shape=tableRow;horizontal=0;startSize=0;swimlaneHead=0;swimlaneBody=0;fillColor=none;collapsible=0;dropTarget=0;points=[[0,0.5],[1,0.5]];portConstraint=eastwest;top=0;left=0;right=0;bottom=0;" vertex="1" parent="tPnun-muu2tYVsJTyNDv-7">
          <mxGeometry y="90" width="180" height="30" as="geometry" />
        </mxCell>
        <mxCell id="tPnun-muu2tYVsJTyNDv-15" value="" style="shape=partialRectangle;connectable=0;fillColor=none;top=0;left=0;bottom=0;right=0;editable=1;overflow=hidden;whiteSpace=wrap;html=1;" vertex="1" parent="tPnun-muu2tYVsJTyNDv-14">
          <mxGeometry width="50.090000000000146" height="30" as="geometry">
            <mxRectangle width="50.090000000000146" height="30" as="alternateBounds" />
          </mxGeometry>
        </mxCell>
        <mxCell id="tPnun-muu2tYVsJTyNDv-16" value="tit_descricao" style="shape=partialRectangle;connectable=0;fillColor=none;top=0;left=0;bottom=0;right=0;align=left;spacingLeft=6;overflow=hidden;whiteSpace=wrap;html=1;" vertex="1" parent="tPnun-muu2tYVsJTyNDv-14">
          <mxGeometry x="50.090000000000146" width="129.90999999999985" height="30" as="geometry">
            <mxRectangle width="129.90999999999985" height="30" as="alternateBounds" />
          </mxGeometry>
        </mxCell>
        <mxCell id="NO1vPbJxNgHPfIi3T-tH-1" value="" style="shape=tableRow;horizontal=0;startSize=0;swimlaneHead=0;swimlaneBody=0;fillColor=none;collapsible=0;dropTarget=0;points=[[0,0.5],[1,0.5]];portConstraint=eastwest;top=0;left=0;right=0;bottom=0;" vertex="1" parent="tPnun-muu2tYVsJTyNDv-7">
          <mxGeometry y="120" width="180" height="30" as="geometry" />
        </mxCell>
        <mxCell id="NO1vPbJxNgHPfIi3T-tH-2" value="" style="shape=partialRectangle;connectable=0;fillColor=none;top=0;left=0;bottom=0;right=0;editable=1;overflow=hidden;" vertex="1" parent="NO1vPbJxNgHPfIi3T-tH-1">
          <mxGeometry width="50.090000000000146" height="30" as="geometry">
            <mxRectangle width="50.090000000000146" height="30" as="alternateBounds" />
          </mxGeometry>
        </mxCell>
        <mxCell id="NO1vPbJxNgHPfIi3T-tH-3" value="tit_icone" style="shape=partialRectangle;connectable=0;fillColor=none;top=0;left=0;bottom=0;right=0;align=left;spacingLeft=6;overflow=hidden;" vertex="1" parent="NO1vPbJxNgHPfIi3T-tH-1">
          <mxGeometry x="50.090000000000146" width="129.90999999999985" height="30" as="geometry">
            <mxRectangle width="129.90999999999985" height="30" as="alternateBounds" />
          </mxGeometry>
        </mxCell>
        <mxCell id="tPnun-muu2tYVsJTyNDv-17" value="" style="shape=tableRow;horizontal=0;startSize=0;swimlaneHead=0;swimlaneBody=0;fillColor=none;collapsible=0;dropTarget=0;points=[[0,0.5],[1,0.5]];portConstraint=eastwest;top=0;left=0;right=0;bottom=0;" vertex="1" parent="tPnun-muu2tYVsJTyNDv-7">
          <mxGeometry y="150" width="180" height="30" as="geometry" />
        </mxCell>
        <mxCell id="tPnun-muu2tYVsJTyNDv-18" value="" style="shape=partialRectangle;connectable=0;fillColor=none;top=0;left=0;bottom=0;right=0;editable=1;overflow=hidden;" vertex="1" parent="tPnun-muu2tYVsJTyNDv-17">
          <mxGeometry width="50.090000000000146" height="30" as="geometry">
            <mxRectangle width="50.090000000000146" height="30" as="alternateBounds" />
          </mxGeometry>
        </mxCell>
        <mxCell id="tPnun-muu2tYVsJTyNDv-19" value="tit_quant_resenhas" style="shape=partialRectangle;connectable=0;fillColor=none;top=0;left=0;bottom=0;right=0;align=left;spacingLeft=6;overflow=hidden;" vertex="1" parent="tPnun-muu2tYVsJTyNDv-17">
          <mxGeometry x="50.090000000000146" width="129.90999999999985" height="30" as="geometry">
            <mxRectangle width="129.90999999999985" height="30" as="alternateBounds" />
          </mxGeometry>
        </mxCell>
        <mxCell id="tPnun-muu2tYVsJTyNDv-35" value="" style="endArrow=ERmany;html=1;rounded=0;strokeWidth=2;endSize=12;startSize=12;startArrow=ERone;startFill=0;endFill=0;entryX=1;entryY=0.5;entryDx=0;entryDy=0;exitX=0;exitY=0.5;exitDx=0;exitDy=0;edgeStyle=orthogonalEdgeStyle;" edge="1" parent="1" source="tPnun-muu2tYVsJTyNDv-8" target="tPnun-muu2tYVsJTyNDv-32">
          <mxGeometry relative="1" as="geometry">
            <mxPoint x="-375" y="-39" as="sourcePoint" />
            <mxPoint x="-364" y="529" as="targetPoint" />
          </mxGeometry>
        </mxCell>
        <mxCell id="WZgLDx1FJYgQB8J3z8JM-4" value="Trigger para atualizar titulo resenhista apÃ³s aprovaÃ§Ã£o da resenha" style="text;html=1;align=center;verticalAlign=middle;whiteSpace=wrap;rounded=0;fontColor=#0000FF;" vertex="1" parent="1">
          <mxGeometry x="163" y="279" width="91" height="86" as="geometry" />
        </mxCell>
      </root>
    </mxGraphModel>
  </diagram>
</mxfile>
